ISO-10303-21;
HEADER;
FILE_DESCRIPTION(('FreeCAD Model'),'2;1');
FILE_NAME('Open CASCADE Shape Model','2026-01-25T20:17:32',(''),(''),
  'Open CASCADE STEP processor 7.8','FreeCAD','Unknown');
FILE_SCHEMA(('AUTOMOTIVE_DESIGN { 1 0 10303 214 1 1 1 1 }'));
ENDSEC;
DATA;
#1 = APPLICATION_PROTOCOL_DEFINITION('international standard',
  'automotive_design',2000,#2);
#2 = APPLICATION_CONTEXT(
  'core data for automotive mechanical design processes');
#3 = SHAPE_DEFINITION_REPRESENTATION(#4,#10);
#4 = PRODUCT_DEFINITION_SHAPE('','',#5);
#5 = PRODUCT_DEFINITION('design','',#6,#9);
#6 = PRODUCT_DEFINITION_FORMATION('','',#7);
#7 = PRODUCT('BackPlate_left_v2','BackPlate_left_v2','',(#8));
#8 = PRODUCT_CONTEXT('',#2,'mechanical');
#9 = PRODUCT_DEFINITION_CONTEXT('part definition',#2,'design');
#10 = ADVANCED_BREP_SHAPE_REPRESENTATION('',(#11,#15),#1373);
#11 = AXIS2_PLACEMENT_3D('',#12,#13,#14);
#12 = CARTESIAN_POINT('',(0.,0.,0.));
#13 = DIRECTION('',(0.,0.,1.));
#14 = DIRECTION('',(1.,0.,-0.));
#15 = MANIFOLD_SOLID_BREP('',#16);
#16 = CLOSED_SHELL('',(#17,#57,#90,#123,#251,#491,#508,#566,#583,#600,
    #617,#634,#651,#668,#680,#705,#730,#755,#780,#804,#885,#909,#949,
    #973,#997,#1021,#1045,#1062,#1086,#1110,#1127,#1152,#1177,#1202,
    #1227,#1244,#1261,#1273,#1285,#1297,#1309,#1321,#1344,#1361));
#17 = ADVANCED_FACE('',(#18),#52,.T.);
#18 = FACE_BOUND('',#19,.T.);
#19 = EDGE_LOOP('',(#20,#30,#38,#46));
#20 = ORIENTED_EDGE('',*,*,#21,.T.);
#21 = EDGE_CURVE('',#22,#24,#26,.T.);
#22 = VERTEX_POINT('',#23);
#23 = CARTESIAN_POINT('',(1.6228E-02,98.660774,0.));
#24 = VERTEX_POINT('',#25);
#25 = CARTESIAN_POINT('',(1.6228E-02,98.660774,7.));
#26 = LINE('',#27,#28);
#27 = CARTESIAN_POINT('',(1.6228E-02,98.660774,0.));
#28 = VECTOR('',#29,1.);
#29 = DIRECTION('',(0.,0.,1.));
#30 = ORIENTED_EDGE('',*,*,#31,.T.);
#31 = EDGE_CURVE('',#24,#32,#34,.T.);
#32 = VERTEX_POINT('',#33);
#33 = CARTESIAN_POINT('',(134.253729,98.660774,7.));
#34 = LINE('',#35,#36);
#35 = CARTESIAN_POINT('',(1.6228E-02,98.660774,7.));
#36 = VECTOR('',#37,1.);
#37 = DIRECTION('',(1.,0.,0.));
#38 = ORIENTED_EDGE('',*,*,#39,.F.);
#39 = EDGE_CURVE('',#40,#32,#42,.T.);
#40 = VERTEX_POINT('',#41);
#41 = CARTESIAN_POINT('',(134.253729,98.660774,0.));
#42 = LINE('',#43,#44);
#43 = CARTESIAN_POINT('',(134.253729,98.660774,0.));
#44 = VECTOR('',#45,1.);
#45 = DIRECTION('',(0.,0.,1.));
#46 = ORIENTED_EDGE('',*,*,#47,.F.);
#47 = EDGE_CURVE('',#22,#40,#48,.T.);
#48 = LINE('',#49,#50);
#49 = CARTESIAN_POINT('',(1.6228E-02,98.660774,0.));
#50 = VECTOR('',#51,1.);
#51 = DIRECTION('',(1.,0.,0.));
#52 = PLANE('',#53);
#53 = AXIS2_PLACEMENT_3D('',#54,#55,#56);
#54 = CARTESIAN_POINT('',(1.6228E-02,98.660774,0.));
#55 = DIRECTION('',(0.,1.,0.));
#56 = DIRECTION('',(1.,0.,0.));
#57 = ADVANCED_FACE('',(#58),#85,.T.);
#58 = FACE_BOUND('',#59,.F.);
#59 = EDGE_LOOP('',(#60,#69,#70,#79));
#60 = ORIENTED_EDGE('',*,*,#61,.T.);
#61 = EDGE_CURVE('',#62,#22,#64,.T.);
#62 = VERTEX_POINT('',#63);
#63 = CARTESIAN_POINT('',(-5.983772,92.660775960769,0.230412959075));
#64 = ELLIPSE('',#65,6.004422550621,6.);
#65 = AXIS2_PLACEMENT_3D('',#66,#67,#68);
#66 = CARTESIAN_POINT('',(1.6228E-02,92.660774,0.230413034373));
#67 = DIRECTION('',(0.,-3.8373887319E-02,-0.999263451134));
#68 = DIRECTION('',(0.,0.999263451134,-3.8373887319E-02));
#69 = ORIENTED_EDGE('',*,*,#21,.T.);
#70 = ORIENTED_EDGE('',*,*,#71,.T.);
#71 = EDGE_CURVE('',#24,#72,#74,.T.);
#72 = VERTEX_POINT('',#73);
#73 = CARTESIAN_POINT('',(-5.983772,92.660775960769,7.));
#74 = CIRCLE('',#75,6.);
#75 = AXIS2_PLACEMENT_3D('',#76,#77,#78);
#76 = CARTESIAN_POINT('',(1.6228E-02,92.660774,7.));
#77 = DIRECTION('',(0.,0.,1.));
#78 = DIRECTION('',(1.,0.,0.));
#79 = ORIENTED_EDGE('',*,*,#80,.F.);
#80 = EDGE_CURVE('',#62,#72,#81,.T.);
#81 = LINE('',#82,#83);
#82 = CARTESIAN_POINT('',(-5.983772,92.660775960769,0.));
#83 = VECTOR('',#84,1.);
#84 = DIRECTION('',(0.,0.,1.));
#85 = CYLINDRICAL_SURFACE('',#86,6.);
#86 = AXIS2_PLACEMENT_3D('',#87,#88,#89);
#87 = CARTESIAN_POINT('',(1.6228E-02,92.660774,0.));
#88 = DIRECTION('',(-0.,-0.,-1.));
#89 = DIRECTION('',(1.,0.,0.));
#90 = ADVANCED_FACE('',(#91),#118,.T.);
#91 = FACE_BOUND('',#92,.F.);
#92 = EDGE_LOOP('',(#93,#102,#110,#117));
#93 = ORIENTED_EDGE('',*,*,#94,.T.);
#94 = EDGE_CURVE('',#40,#95,#97,.T.);
#95 = VERTEX_POINT('',#96);
#96 = CARTESIAN_POINT('',(140.253729,92.660775960769,0.230412959075));
#97 = ELLIPSE('',#98,6.004422550621,6.);
#98 = AXIS2_PLACEMENT_3D('',#99,#100,#101);
#99 = CARTESIAN_POINT('',(134.253729,92.660774,0.230413034373));
#100 = DIRECTION('',(0.,-3.8373887319E-02,-0.999263451134));
#101 = DIRECTION('',(0.,0.999263451134,-3.8373887319E-02));
#102 = ORIENTED_EDGE('',*,*,#103,.T.);
#103 = EDGE_CURVE('',#95,#104,#106,.T.);
#104 = VERTEX_POINT('',#105);
#105 = CARTESIAN_POINT('',(140.253729,92.660775960769,7.));
#106 = LINE('',#107,#108);
#107 = CARTESIAN_POINT('',(140.253729,92.660775960769,0.));
#108 = VECTOR('',#109,1.);
#109 = DIRECTION('',(0.,0.,1.));
#110 = ORIENTED_EDGE('',*,*,#111,.T.);
#111 = EDGE_CURVE('',#104,#32,#112,.T.);
#112 = CIRCLE('',#113,6.);
#113 = AXIS2_PLACEMENT_3D('',#114,#115,#116);
#114 = CARTESIAN_POINT('',(134.253729,92.660774,7.));
#115 = DIRECTION('',(0.,0.,1.));
#116 = DIRECTION('',(1.,0.,0.));
#117 = ORIENTED_EDGE('',*,*,#39,.F.);
#118 = CYLINDRICAL_SURFACE('',#119,6.);
#119 = AXIS2_PLACEMENT_3D('',#120,#121,#122);
#120 = CARTESIAN_POINT('',(134.253729,92.660774,0.));
#121 = DIRECTION('',(-0.,-0.,-1.));
#122 = DIRECTION('',(1.,0.,0.));
#123 = ADVANCED_FACE('',(#124,#202,#213,#224,#235),#246,.T.);
#124 = FACE_BOUND('',#125,.T.);
#125 = EDGE_LOOP('',(#126,#127,#128,#136,#144,#152,#161,#170,#178,#186,
    #195,#201));
#126 = ORIENTED_EDGE('',*,*,#47,.T.);
#127 = ORIENTED_EDGE('',*,*,#94,.T.);
#128 = ORIENTED_EDGE('',*,*,#129,.F.);
#129 = EDGE_CURVE('',#130,#95,#132,.T.);
#130 = VERTEX_POINT('',#131);
#131 = CARTESIAN_POINT('',(140.253729,31.850939,2.565642801387));
#132 = LINE('',#133,#134);
#133 = CARTESIAN_POINT('',(140.253729,43.584805644625,2.115036831634));
#134 = VECTOR('',#135,1.);
#135 = DIRECTION('',(0.,0.999263451134,-3.8373887319E-02));
#136 = ORIENTED_EDGE('',*,*,#137,.F.);
#137 = EDGE_CURVE('',#138,#130,#140,.T.);
#138 = VERTEX_POINT('',#139);
#139 = CARTESIAN_POINT('',(143.153165,18.353531,3.083972590296));
#140 = LINE('',#141,#142);
#141 = CARTESIAN_POINT('',(144.18879582395,13.532478985629,3.26911146088
    ));
#142 = VECTOR('',#143,1.);
#143 = DIRECTION('',(-0.209875276227,0.977008022368,-3.751923050679E-02)
  );
#144 = ORIENTED_EDGE('',*,*,#145,.F.);
#145 = EDGE_CURVE('',#146,#138,#148,.T.);
#146 = VERTEX_POINT('',#147);
#147 = CARTESIAN_POINT('',(135.39361902219,-1.660976424048,
    3.852573154806));
#148 = LINE('',#149,#150);
#149 = CARTESIAN_POINT('',(139.28962851382,8.388156749142,3.466664610263
    ));
#150 = VECTOR('',#151,1.);
#151 = DIRECTION('',(0.361248520835,0.931782764463,-3.578248235611E-02)
  );
#152 = ORIENTED_EDGE('',*,*,#153,.T.);
#153 = EDGE_CURVE('',#146,#154,#156,.T.);
#154 = VERTEX_POINT('',#155);
#155 = CARTESIAN_POINT('',(127.56565895245,-4.935621531309,
    3.978326640749));
#156 = ELLIPSE('',#157,6.004434349354,6.000011790042);
#157 = AXIS2_PLACEMENT_3D('',#158,#159,#160);
#158 = CARTESIAN_POINT('',(129.84231589862,0.615682336261,3.765144512607
    ));
#159 = DIRECTION('',(0.,-3.8373887319E-02,-0.999263451134));
#160 = DIRECTION('',(0.,0.999263451134,-3.8373887319E-02));
#161 = ORIENTED_EDGE('',*,*,#162,.F.);
#162 = EDGE_CURVE('',#163,#154,#165,.T.);
#163 = VERTEX_POINT('',#164);
#164 = CARTESIAN_POINT('',(73.834978000004,5.648308945703,3.571880717948
    ));
#165 = ELLIPSE('',#166,106.20630581355,106.12807967943);
#166 = AXIS2_PLACEMENT_3D('',#167,#168,#169);
#167 = CARTESIAN_POINT('',(80.883665730284,-100.2454363734,
    7.638430581305));
#168 = DIRECTION('',(0.,-3.8373887319E-02,-0.999263451134));
#169 = DIRECTION('',(0.,0.999263451134,-3.8373887319E-02));
#170 = ORIENTED_EDGE('',*,*,#171,.T.);
#171 = EDGE_CURVE('',#163,#172,#174,.T.);
#172 = VERTEX_POINT('',#173);
#173 = CARTESIAN_POINT('',(57.216215,10.410808945706,3.388990371915));
#174 = LINE('',#175,#176);
#175 = CARTESIAN_POINT('',(99.982183580597,-1.844791869178,
    3.859632067219));
#176 = VECTOR('',#177,1.);
#177 = DIRECTION('',(-0.961251629547,0.275469412839,-1.057862388154E-02)
  );
#178 = ORIENTED_EDGE('',*,*,#179,.T.);
#179 = EDGE_CURVE('',#172,#180,#182,.T.);
#180 = VERTEX_POINT('',#181);
#181 = CARTESIAN_POINT('',(-3.781697169721E-16,10.410808945706,
    3.388990371915));
#182 = LINE('',#183,#184);
#183 = CARTESIAN_POINT('',(72.6268645,10.410808945706,3.388990371915));
#184 = VECTOR('',#185,1.);
#185 = DIRECTION('',(-1.,0.,0.));
#186 = ORIENTED_EDGE('',*,*,#187,.T.);
#187 = EDGE_CURVE('',#180,#188,#190,.T.);
#188 = VERTEX_POINT('',#189);
#189 = CARTESIAN_POINT('',(-5.983772,16.410787,3.158578180304));
#190 = ELLIPSE('',#191,6.004422550621,6.);
#191 = AXIS2_PLACEMENT_3D('',#192,#193,#194);
#192 = CARTESIAN_POINT('',(1.6228E-02,16.410787,3.158578180304));
#193 = DIRECTION('',(0.,-3.8373887319E-02,-0.999263451134));
#194 = DIRECTION('',(0.,0.999263451134,-3.8373887319E-02));
#195 = ORIENTED_EDGE('',*,*,#196,.T.);
#196 = EDGE_CURVE('',#188,#62,#197,.T.);
#197 = LINE('',#198,#199);
#198 = CARTESIAN_POINT('',(-5.983772,43.584805644625,2.115036831634));
#199 = VECTOR('',#200,1.);
#200 = DIRECTION('',(0.,0.999263451134,-3.8373887319E-02));
#201 = ORIENTED_EDGE('',*,*,#61,.T.);
#202 = FACE_BOUND('',#203,.T.);
#203 = EDGE_LOOP('',(#204));
#204 = ORIENTED_EDGE('',*,*,#205,.F.);
#205 = EDGE_CURVE('',#206,#206,#208,.T.);
#206 = VERTEX_POINT('',#207);
#207 = CARTESIAN_POINT('',(0.144908696296,14.289465616586,3.240041529776
    ));
#208 = ELLIPSE('',#209,2.251658456483,2.25);
#209 = AXIS2_PLACEMENT_3D('',#210,#211,#212);
#210 = CARTESIAN_POINT('',(-2.105091303704,14.289465616586,
    3.240041529776));
#211 = DIRECTION('',(0.,-3.8373887319E-02,-0.999263451134));
#212 = DIRECTION('',(0.,0.999263451134,-3.8373887319E-02));
#213 = FACE_BOUND('',#214,.T.);
#214 = EDGE_LOOP('',(#215));
#215 = ORIENTED_EDGE('',*,*,#216,.F.);
#216 = EDGE_CURVE('',#217,#217,#219,.T.);
#217 = VERTEX_POINT('',#218);
#218 = CARTESIAN_POINT('',(0.144908696295,94.782095383414,0.148949684901
    ));
#219 = ELLIPSE('',#220,2.251658456483,2.25);
#220 = AXIS2_PLACEMENT_3D('',#221,#222,#223);
#221 = CARTESIAN_POINT('',(-2.105091303705,94.782095383414,
    0.148949684901));
#222 = DIRECTION('',(0.,-3.8373887319E-02,-0.999263451134));
#223 = DIRECTION('',(0.,0.999263451134,-3.8373887319E-02));
#224 = FACE_BOUND('',#225,.T.);
#225 = EDGE_LOOP('',(#226));
#226 = ORIENTED_EDGE('',*,*,#227,.F.);
#227 = EDGE_CURVE('',#228,#228,#230,.T.);
#228 = VERTEX_POINT('',#229);
#229 = CARTESIAN_POINT('',(133.25007524124,-2.151914690871,
    3.871426250764));
#230 = ELLIPSE('',#231,2.251658456483,2.25);
#231 = AXIS2_PLACEMENT_3D('',#232,#233,#234);
#232 = CARTESIAN_POINT('',(131.00007524124,-2.151914690871,
    3.871426250764));
#233 = DIRECTION('',(0.,-3.8373887319E-02,-0.999263451134));
#234 = DIRECTION('',(0.,0.999263451134,-3.8373887319E-02));
#235 = FACE_BOUND('',#236,.T.);
#236 = EDGE_LOOP('',(#237));
#237 = ORIENTED_EDGE('',*,*,#238,.F.);
#238 = EDGE_CURVE('',#239,#239,#241,.T.);
#239 = VERTEX_POINT('',#240);
#240 = CARTESIAN_POINT('',(138.62504969017,94.782093996941,
    0.148949738145));
#241 = ELLIPSE('',#242,2.251658456483,2.25);
#242 = AXIS2_PLACEMENT_3D('',#243,#244,#245);
#243 = CARTESIAN_POINT('',(136.37504969017,94.782093996941,
    0.148949738145));
#244 = DIRECTION('',(0.,-3.8373887319E-02,-0.999263451134));
#245 = DIRECTION('',(0.,0.999263451134,-3.8373887319E-02));
#246 = PLANE('',#247);
#247 = AXIS2_PLACEMENT_3D('',#248,#249,#250);
#248 = CARTESIAN_POINT('',(145.253729,-5.5,4.));
#249 = DIRECTION('',(0.,-3.8373887319E-02,-0.999263451134));
#250 = DIRECTION('',(0.,0.999263451134,-3.8373887319E-02));
#251 = ADVANCED_FACE('',(#252,#442,#453,#464,#475),#486,.T.);
#252 = FACE_BOUND('',#253,.T.);
#253 = EDGE_LOOP('',(#254,#255,#256,#264,#273,#281,#289,#298,#307,#315,
    #323,#331,#339,#347,#355,#363,#371,#379,#387,#395,#403,#411,#419,
    #427,#435,#441));
#254 = ORIENTED_EDGE('',*,*,#31,.F.);
#255 = ORIENTED_EDGE('',*,*,#71,.T.);
#256 = ORIENTED_EDGE('',*,*,#257,.T.);
#257 = EDGE_CURVE('',#72,#258,#260,.T.);
#258 = VERTEX_POINT('',#259);
#259 = CARTESIAN_POINT('',(-5.983772,16.410787,7.));
#260 = LINE('',#261,#262);
#261 = CARTESIAN_POINT('',(-5.983772,92.660775960769,7.));
#262 = VECTOR('',#263,1.);
#263 = DIRECTION('',(0.,-1.,0.));
#264 = ORIENTED_EDGE('',*,*,#265,.T.);
#265 = EDGE_CURVE('',#258,#266,#268,.T.);
#266 = VERTEX_POINT('',#267);
#267 = CARTESIAN_POINT('',(-3.781697169721E-16,10.410808945706,7.));
#268 = CIRCLE('',#269,6.);
#269 = AXIS2_PLACEMENT_3D('',#270,#271,#272);
#270 = CARTESIAN_POINT('',(1.6228E-02,16.410787,7.));
#271 = DIRECTION('',(0.,0.,1.));
#272 = DIRECTION('',(1.,0.,0.));
#273 = ORIENTED_EDGE('',*,*,#274,.T.);
#274 = EDGE_CURVE('',#266,#275,#277,.T.);
#275 = VERTEX_POINT('',#276);
#276 = CARTESIAN_POINT('',(57.216215,10.410808945706,7.));
#277 = LINE('',#278,#279);
#278 = CARTESIAN_POINT('',(0.,10.410808945706,7.));
#279 = VECTOR('',#280,1.);
#280 = DIRECTION('',(1.,0.,0.));
#281 = ORIENTED_EDGE('',*,*,#282,.T.);
#282 = EDGE_CURVE('',#275,#283,#285,.T.);
#283 = VERTEX_POINT('',#284);
#284 = CARTESIAN_POINT('',(73.834978000004,5.648308945703,7.));
#285 = LINE('',#286,#287);
#286 = CARTESIAN_POINT('',(57.216215,10.410808945706,7.));
#287 = VECTOR('',#288,1.);
#288 = DIRECTION('',(0.961305419591,-0.27548482765,0.));
#289 = ORIENTED_EDGE('',*,*,#290,.F.);
#290 = EDGE_CURVE('',#291,#283,#293,.T.);
#291 = VERTEX_POINT('',#292);
#292 = CARTESIAN_POINT('',(127.56565895245,-4.935621531309,7.));
#293 = CIRCLE('',#294,106.12807967943);
#294 = AXIS2_PLACEMENT_3D('',#295,#296,#297);
#295 = CARTESIAN_POINT('',(80.883665730284,-100.2454363734,7.));
#296 = DIRECTION('',(0.,0.,1.));
#297 = DIRECTION('',(1.,0.,0.));
#298 = ORIENTED_EDGE('',*,*,#299,.T.);
#299 = EDGE_CURVE('',#291,#300,#302,.T.);
#300 = VERTEX_POINT('',#301);
#301 = CARTESIAN_POINT('',(135.39361902219,-1.660976424048,7.));
#302 = CIRCLE('',#303,6.000011790042);
#303 = AXIS2_PLACEMENT_3D('',#304,#305,#306);
#304 = CARTESIAN_POINT('',(129.84231589862,0.615682336261,7.));
#305 = DIRECTION('',(0.,0.,1.));
#306 = DIRECTION('',(1.,0.,0.));
#307 = ORIENTED_EDGE('',*,*,#308,.F.);
#308 = EDGE_CURVE('',#309,#300,#311,.T.);
#309 = VERTEX_POINT('',#310);
#310 = CARTESIAN_POINT('',(143.153165,18.353531,7.));
#311 = LINE('',#312,#313);
#312 = CARTESIAN_POINT('',(143.153165,18.353531,7.));
#313 = VECTOR('',#314,1.);
#314 = DIRECTION('',(-0.361480011939,-0.932379858732,0.));
#315 = ORIENTED_EDGE('',*,*,#316,.F.);
#316 = EDGE_CURVE('',#317,#309,#319,.T.);
#317 = VERTEX_POINT('',#318);
#318 = CARTESIAN_POINT('',(140.253729,31.850939,7.));
#319 = LINE('',#320,#321);
#320 = CARTESIAN_POINT('',(140.253729,31.850939,7.));
#321 = VECTOR('',#322,1.);
#322 = DIRECTION('',(0.210023152311,-0.977696412745,0.));
#323 = ORIENTED_EDGE('',*,*,#324,.F.);
#324 = EDGE_CURVE('',#325,#317,#327,.T.);
#325 = VERTEX_POINT('',#326);
#326 = CARTESIAN_POINT('',(140.253729,46.84077596077,7.));
#327 = LINE('',#328,#329);
#328 = CARTESIAN_POINT('',(140.253729,92.660775960769,7.));
#329 = VECTOR('',#330,1.);
#330 = DIRECTION('',(0.,-1.,0.));
#331 = ORIENTED_EDGE('',*,*,#332,.T.);
#332 = EDGE_CURVE('',#325,#333,#335,.T.);
#333 = VERTEX_POINT('',#334);
#334 = CARTESIAN_POINT('',(134.253729,46.84077596077,7.));
#335 = LINE('',#336,#337);
#336 = CARTESIAN_POINT('',(140.253729,46.84077596077,7.));
#337 = VECTOR('',#338,1.);
#338 = DIRECTION('',(-1.,-0.,-0.));
#339 = ORIENTED_EDGE('',*,*,#340,.T.);
#340 = EDGE_CURVE('',#333,#341,#343,.T.);
#341 = VERTEX_POINT('',#342);
#342 = CARTESIAN_POINT('',(134.253729,31.850939,7.));
#343 = LINE('',#344,#345);
#344 = CARTESIAN_POINT('',(134.253729,92.660774,7.));
#345 = VECTOR('',#346,1.);
#346 = DIRECTION('',(0.,-1.,0.));
#347 = ORIENTED_EDGE('',*,*,#348,.T.);
#348 = EDGE_CURVE('',#341,#349,#351,.T.);
#349 = VERTEX_POINT('',#350);
#350 = CARTESIAN_POINT('',(137.1548006358,18.345916814423,7.));
#351 = LINE('',#352,#353);
#352 = CARTESIAN_POINT('',(134.253729,31.850939,7.));
#353 = VECTOR('',#354,1.);
#354 = DIRECTION('',(0.210023152311,-0.977696412745,0.));
#355 = ORIENTED_EDGE('',*,*,#356,.T.);
#356 = EDGE_CURVE('',#349,#357,#359,.T.);
#357 = VERTEX_POINT('',#358);
#358 = CARTESIAN_POINT('',(129.84231589862,0.615682336261,7.));
#359 = LINE('',#360,#361);
#360 = CARTESIAN_POINT('',(137.1548006358,18.345916814423,7.));
#361 = VECTOR('',#362,1.);
#362 = DIRECTION('',(-0.381275804095,-0.924461335704,0.));
#363 = ORIENTED_EDGE('',*,*,#364,.T.);
#364 = EDGE_CURVE('',#357,#365,#367,.T.);
#365 = VERTEX_POINT('',#366);
#366 = CARTESIAN_POINT('',(112.021516,7.924215,7.));
#367 = LINE('',#368,#369);
#368 = CARTESIAN_POINT('',(129.84231589862,0.615682336261,7.));
#369 = VECTOR('',#370,1.);
#370 = DIRECTION('',(-0.925215369207,0.379442381111,0.));
#371 = ORIENTED_EDGE('',*,*,#372,.T.);
#372 = EDGE_CURVE('',#365,#373,#375,.T.);
#373 = VERTEX_POINT('',#374);
#374 = CARTESIAN_POINT('',(92.907559,11.648287,7.));
#375 = LINE('',#376,#377);
#376 = CARTESIAN_POINT('',(112.021516,7.924215,7.));
#377 = VECTOR('',#378,1.);
#378 = DIRECTION('',(-0.981543455629,0.191239234236,0.));
#379 = ORIENTED_EDGE('',*,*,#380,.T.);
#380 = EDGE_CURVE('',#373,#381,#383,.T.);
#381 = VERTEX_POINT('',#382);
#382 = CARTESIAN_POINT('',(73.834978,11.648287,7.));
#383 = LINE('',#384,#385);
#384 = CARTESIAN_POINT('',(92.907559,11.648287,7.));
#385 = VECTOR('',#386,1.);
#386 = DIRECTION('',(-1.,0.,0.));
#387 = ORIENTED_EDGE('',*,*,#388,.T.);
#388 = EDGE_CURVE('',#381,#389,#391,.T.);
#389 = VERTEX_POINT('',#390);
#390 = CARTESIAN_POINT('',(57.216215,16.410787,7.));
#391 = LINE('',#392,#393);
#392 = CARTESIAN_POINT('',(73.834978,11.648287,7.));
#393 = VECTOR('',#394,1.);
#394 = DIRECTION('',(-0.961305419591,0.275484827649,0.));
#395 = ORIENTED_EDGE('',*,*,#396,.T.);
#396 = EDGE_CURVE('',#389,#397,#399,.T.);
#397 = VERTEX_POINT('',#398);
#398 = CARTESIAN_POINT('',(1.6228E-02,16.410787,7.));
#399 = LINE('',#400,#401);
#400 = CARTESIAN_POINT('',(57.216215,16.410787,7.));
#401 = VECTOR('',#402,1.);
#402 = DIRECTION('',(-1.,0.,0.));
#403 = ORIENTED_EDGE('',*,*,#404,.T.);
#404 = EDGE_CURVE('',#397,#405,#407,.T.);
#405 = VERTEX_POINT('',#406);
#406 = CARTESIAN_POINT('',(1.6228E-02,92.660774,7.));
#407 = LINE('',#408,#409);
#408 = CARTESIAN_POINT('',(1.6228E-02,16.410787,7.));
#409 = VECTOR('',#410,1.);
#410 = DIRECTION('',(0.,1.,0.));
#411 = ORIENTED_EDGE('',*,*,#412,.T.);
#412 = EDGE_CURVE('',#405,#413,#415,.T.);
#413 = VERTEX_POINT('',#414);
#414 = CARTESIAN_POINT('',(134.253729,92.660774,7.));
#415 = LINE('',#416,#417);
#416 = CARTESIAN_POINT('',(1.6228E-02,92.660774,7.));
#417 = VECTOR('',#418,1.);
#418 = DIRECTION('',(1.,0.,0.));
#419 = ORIENTED_EDGE('',*,*,#420,.T.);
#420 = EDGE_CURVE('',#413,#421,#423,.T.);
#421 = VERTEX_POINT('',#422);
#422 = CARTESIAN_POINT('',(134.253729,56.840775960769,7.000000000028));
#423 = LINE('',#424,#425);
#424 = CARTESIAN_POINT('',(134.253729,92.660774,7.));
#425 = VECTOR('',#426,1.);
#426 = DIRECTION('',(0.,-1.,0.));
#427 = ORIENTED_EDGE('',*,*,#428,.F.);
#428 = EDGE_CURVE('',#429,#421,#431,.T.);
#429 = VERTEX_POINT('',#430);
#430 = CARTESIAN_POINT('',(140.253729,56.840775960769,7.000000000028));
#431 = LINE('',#432,#433);
#432 = CARTESIAN_POINT('',(140.253729,56.840775960769,7.000000000028));
#433 = VECTOR('',#434,1.);
#434 = DIRECTION('',(-1.,-0.,-0.));
#435 = ORIENTED_EDGE('',*,*,#436,.F.);
#436 = EDGE_CURVE('',#104,#429,#437,.T.);
#437 = LINE('',#438,#439);
#438 = CARTESIAN_POINT('',(140.253729,92.660775960769,7.));
#439 = VECTOR('',#440,1.);
#440 = DIRECTION('',(0.,-1.,0.));
#441 = ORIENTED_EDGE('',*,*,#111,.T.);
#442 = FACE_BOUND('',#443,.T.);
#443 = EDGE_LOOP('',(#444));
#444 = ORIENTED_EDGE('',*,*,#445,.F.);
#445 = EDGE_CURVE('',#446,#446,#448,.T.);
#446 = VERTEX_POINT('',#447);
#447 = CARTESIAN_POINT('',(-0.905091303704,14.289465616586,7.));
#448 = CIRCLE('',#449,1.2);
#449 = AXIS2_PLACEMENT_3D('',#450,#451,#452);
#450 = CARTESIAN_POINT('',(-2.105091303704,14.289465616586,7.));
#451 = DIRECTION('',(0.,0.,1.));
#452 = DIRECTION('',(1.,0.,0.));
#453 = FACE_BOUND('',#454,.T.);
#454 = EDGE_LOOP('',(#455));
#455 = ORIENTED_EDGE('',*,*,#456,.F.);
#456 = EDGE_CURVE('',#457,#457,#459,.T.);
#457 = VERTEX_POINT('',#458);
#458 = CARTESIAN_POINT('',(132.20007524124,-2.151914690871,7.));
#459 = CIRCLE('',#460,1.2);
#460 = AXIS2_PLACEMENT_3D('',#461,#462,#463);
#461 = CARTESIAN_POINT('',(131.00007524124,-2.151914690871,7.));
#462 = DIRECTION('',(0.,0.,1.));
#463 = DIRECTION('',(1.,0.,0.));
#464 = FACE_BOUND('',#465,.T.);
#465 = EDGE_LOOP('',(#466));
#466 = ORIENTED_EDGE('',*,*,#467,.F.);
#467 = EDGE_CURVE('',#468,#468,#470,.T.);
#468 = VERTEX_POINT('',#469);
#469 = CARTESIAN_POINT('',(-0.905091303705,94.782095383414,7.));
#470 = CIRCLE('',#471,1.2);
#471 = AXIS2_PLACEMENT_3D('',#472,#473,#474);
#472 = CARTESIAN_POINT('',(-2.105091303705,94.782095383414,7.));
#473 = DIRECTION('',(0.,0.,1.));
#474 = DIRECTION('',(1.,0.,0.));
#475 = FACE_BOUND('',#476,.T.);
#476 = EDGE_LOOP('',(#477));
#477 = ORIENTED_EDGE('',*,*,#478,.F.);
#478 = EDGE_CURVE('',#479,#479,#481,.T.);
#479 = VERTEX_POINT('',#480);
#480 = CARTESIAN_POINT('',(137.57504969017,94.782093996941,7.));
#481 = CIRCLE('',#482,1.2);
#482 = AXIS2_PLACEMENT_3D('',#483,#484,#485);
#483 = CARTESIAN_POINT('',(136.37504969017,94.782093996941,7.));
#484 = DIRECTION('',(0.,0.,1.));
#485 = DIRECTION('',(1.,0.,0.));
#486 = PLANE('',#487);
#487 = AXIS2_PLACEMENT_3D('',#488,#489,#490);
#488 = CARTESIAN_POINT('',(69.331870406274,51.637859085298,7.));
#489 = DIRECTION('',(0.,0.,1.));
#490 = DIRECTION('',(1.,0.,0.));
#491 = ADVANCED_FACE('',(#492),#503,.F.);
#492 = FACE_BOUND('',#493,.F.);
#493 = EDGE_LOOP('',(#494,#495,#496,#497));
#494 = ORIENTED_EDGE('',*,*,#196,.T.);
#495 = ORIENTED_EDGE('',*,*,#80,.T.);
#496 = ORIENTED_EDGE('',*,*,#257,.T.);
#497 = ORIENTED_EDGE('',*,*,#498,.F.);
#498 = EDGE_CURVE('',#188,#258,#499,.T.);
#499 = LINE('',#500,#501);
#500 = CARTESIAN_POINT('',(-5.983772,16.410787,0.));
#501 = VECTOR('',#502,1.);
#502 = DIRECTION('',(0.,0.,1.));
#503 = PLANE('',#504);
#504 = AXIS2_PLACEMENT_3D('',#505,#506,#507);
#505 = CARTESIAN_POINT('',(-5.983772,92.660775960769,0.));
#506 = DIRECTION('',(1.,0.,0.));
#507 = DIRECTION('',(0.,-1.,0.));
#508 = ADVANCED_FACE('',(#509),#561,.T.);
#509 = FACE_BOUND('',#510,.T.);
#510 = EDGE_LOOP('',(#511,#517,#518,#519,#520,#528,#537,#545,#554,#560)
  );
#511 = ORIENTED_EDGE('',*,*,#512,.F.);
#512 = EDGE_CURVE('',#130,#317,#513,.T.);
#513 = LINE('',#514,#515);
#514 = CARTESIAN_POINT('',(140.253729,31.850939,0.));
#515 = VECTOR('',#516,1.);
#516 = DIRECTION('',(0.,0.,1.));
#517 = ORIENTED_EDGE('',*,*,#129,.T.);
#518 = ORIENTED_EDGE('',*,*,#103,.T.);
#519 = ORIENTED_EDGE('',*,*,#436,.T.);
#520 = ORIENTED_EDGE('',*,*,#521,.F.);
#521 = EDGE_CURVE('',#522,#429,#524,.T.);
#522 = VERTEX_POINT('',#523);
#523 = CARTESIAN_POINT('',(140.253729,56.840775960769,5.49999999997));
#524 = LINE('',#525,#526);
#525 = CARTESIAN_POINT('',(140.253729,56.840775960769,5.49999999997));
#526 = VECTOR('',#527,1.);
#527 = DIRECTION('',(0.,0.,1.));
#528 = ORIENTED_EDGE('',*,*,#529,.F.);
#529 = EDGE_CURVE('',#530,#522,#532,.T.);
#530 = VERTEX_POINT('',#531);
#531 = CARTESIAN_POINT('',(140.253729,56.340775960769,4.99999999997));
#532 = CIRCLE('',#533,0.5);
#533 = AXIS2_PLACEMENT_3D('',#534,#535,#536);
#534 = CARTESIAN_POINT('',(140.253729,56.340775960769,5.49999999997));
#535 = DIRECTION('',(1.,0.,0.));
#536 = DIRECTION('',(0.,1.,0.));
#537 = ORIENTED_EDGE('',*,*,#538,.F.);
#538 = EDGE_CURVE('',#539,#530,#541,.T.);
#539 = VERTEX_POINT('',#540);
#540 = CARTESIAN_POINT('',(140.253729,47.340775960769,4.99999999997));
#541 = LINE('',#542,#543);
#542 = CARTESIAN_POINT('',(140.253729,47.340775960769,4.99999999997));
#543 = VECTOR('',#544,1.);
#544 = DIRECTION('',(0.,1.,0.));
#545 = ORIENTED_EDGE('',*,*,#546,.F.);
#546 = EDGE_CURVE('',#547,#539,#549,.T.);
#547 = VERTEX_POINT('',#548);
#548 = CARTESIAN_POINT('',(140.253729,46.84077596077,5.49999999997));
#549 = CIRCLE('',#550,0.5);
#550 = AXIS2_PLACEMENT_3D('',#551,#552,#553);
#551 = CARTESIAN_POINT('',(140.253729,47.340775960769,5.49999999997));
#552 = DIRECTION('',(1.,0.,0.));
#553 = DIRECTION('',(0.,1.,0.));
#554 = ORIENTED_EDGE('',*,*,#555,.F.);
#555 = EDGE_CURVE('',#325,#547,#556,.T.);
#556 = LINE('',#557,#558);
#557 = CARTESIAN_POINT('',(140.253729,46.84077596077,7.));
#558 = VECTOR('',#559,1.);
#559 = DIRECTION('',(0.,0.,-1.));
#560 = ORIENTED_EDGE('',*,*,#324,.T.);
#561 = PLANE('',#562);
#562 = AXIS2_PLACEMENT_3D('',#563,#564,#565);
#563 = CARTESIAN_POINT('',(140.253729,92.660775960769,0.));
#564 = DIRECTION('',(1.,0.,0.));
#565 = DIRECTION('',(0.,-1.,0.));
#566 = ADVANCED_FACE('',(#567),#578,.T.);
#567 = FACE_BOUND('',#568,.F.);
#568 = EDGE_LOOP('',(#569,#570,#571,#572));
#569 = ORIENTED_EDGE('',*,*,#187,.T.);
#570 = ORIENTED_EDGE('',*,*,#498,.T.);
#571 = ORIENTED_EDGE('',*,*,#265,.T.);
#572 = ORIENTED_EDGE('',*,*,#573,.F.);
#573 = EDGE_CURVE('',#180,#266,#574,.T.);
#574 = LINE('',#575,#576);
#575 = CARTESIAN_POINT('',(-3.781697169721E-16,10.410808945706,0.));
#576 = VECTOR('',#577,1.);
#577 = DIRECTION('',(0.,0.,1.));
#578 = CYLINDRICAL_SURFACE('',#579,6.);
#579 = AXIS2_PLACEMENT_3D('',#580,#581,#582);
#580 = CARTESIAN_POINT('',(1.6228E-02,16.410787,0.));
#581 = DIRECTION('',(-0.,-0.,-1.));
#582 = DIRECTION('',(1.,0.,0.));
#583 = ADVANCED_FACE('',(#584),#595,.T.);
#584 = FACE_BOUND('',#585,.T.);
#585 = EDGE_LOOP('',(#586,#587,#588,#589));
#586 = ORIENTED_EDGE('',*,*,#137,.T.);
#587 = ORIENTED_EDGE('',*,*,#512,.T.);
#588 = ORIENTED_EDGE('',*,*,#316,.T.);
#589 = ORIENTED_EDGE('',*,*,#590,.F.);
#590 = EDGE_CURVE('',#138,#309,#591,.T.);
#591 = LINE('',#592,#593);
#592 = CARTESIAN_POINT('',(143.153165,18.353531,0.));
#593 = VECTOR('',#594,1.);
#594 = DIRECTION('',(0.,0.,1.));
#595 = PLANE('',#596);
#596 = AXIS2_PLACEMENT_3D('',#597,#598,#599);
#597 = CARTESIAN_POINT('',(140.253729,31.850939,0.));
#598 = DIRECTION('',(0.977696412745,0.210023152311,0.));
#599 = DIRECTION('',(0.210023152311,-0.977696412745,0.));
#600 = ADVANCED_FACE('',(#601),#612,.F.);
#601 = FACE_BOUND('',#602,.F.);
#602 = EDGE_LOOP('',(#603,#604,#605,#606));
#603 = ORIENTED_EDGE('',*,*,#179,.T.);
#604 = ORIENTED_EDGE('',*,*,#573,.T.);
#605 = ORIENTED_EDGE('',*,*,#274,.T.);
#606 = ORIENTED_EDGE('',*,*,#607,.F.);
#607 = EDGE_CURVE('',#172,#275,#608,.T.);
#608 = LINE('',#609,#610);
#609 = CARTESIAN_POINT('',(57.216215,10.410808945706,0.));
#610 = VECTOR('',#611,1.);
#611 = DIRECTION('',(0.,0.,1.));
#612 = PLANE('',#613);
#613 = AXIS2_PLACEMENT_3D('',#614,#615,#616);
#614 = CARTESIAN_POINT('',(0.,10.410808945706,0.));
#615 = DIRECTION('',(0.,1.,0.));
#616 = DIRECTION('',(1.,0.,0.));
#617 = ADVANCED_FACE('',(#618),#629,.T.);
#618 = FACE_BOUND('',#619,.T.);
#619 = EDGE_LOOP('',(#620,#621,#622,#623));
#620 = ORIENTED_EDGE('',*,*,#145,.T.);
#621 = ORIENTED_EDGE('',*,*,#590,.T.);
#622 = ORIENTED_EDGE('',*,*,#308,.T.);
#623 = ORIENTED_EDGE('',*,*,#624,.F.);
#624 = EDGE_CURVE('',#146,#300,#625,.T.);
#625 = LINE('',#626,#627);
#626 = CARTESIAN_POINT('',(135.39361902219,-1.660976424048,0.));
#627 = VECTOR('',#628,1.);
#628 = DIRECTION('',(0.,0.,1.));
#629 = PLANE('',#630);
#630 = AXIS2_PLACEMENT_3D('',#631,#632,#633);
#631 = CARTESIAN_POINT('',(143.153165,18.353531,0.));
#632 = DIRECTION('',(0.932379858732,-0.361480011939,0.));
#633 = DIRECTION('',(-0.361480011939,-0.932379858732,0.));
#634 = ADVANCED_FACE('',(#635),#646,.F.);
#635 = FACE_BOUND('',#636,.F.);
#636 = EDGE_LOOP('',(#637,#638,#639,#640));
#637 = ORIENTED_EDGE('',*,*,#171,.T.);
#638 = ORIENTED_EDGE('',*,*,#607,.T.);
#639 = ORIENTED_EDGE('',*,*,#282,.T.);
#640 = ORIENTED_EDGE('',*,*,#641,.F.);
#641 = EDGE_CURVE('',#163,#283,#642,.T.);
#642 = LINE('',#643,#644);
#643 = CARTESIAN_POINT('',(73.834978000004,5.648308945703,0.));
#644 = VECTOR('',#645,1.);
#645 = DIRECTION('',(0.,0.,1.));
#646 = PLANE('',#647);
#647 = AXIS2_PLACEMENT_3D('',#648,#649,#650);
#648 = CARTESIAN_POINT('',(57.216215,10.410808945706,0.));
#649 = DIRECTION('',(0.27548482765,0.961305419591,0.));
#650 = DIRECTION('',(0.961305419591,-0.27548482765,0.));
#651 = ADVANCED_FACE('',(#652),#663,.T.);
#652 = FACE_BOUND('',#653,.F.);
#653 = EDGE_LOOP('',(#654,#655,#661,#662));
#654 = ORIENTED_EDGE('',*,*,#153,.T.);
#655 = ORIENTED_EDGE('',*,*,#656,.T.);
#656 = EDGE_CURVE('',#154,#291,#657,.T.);
#657 = LINE('',#658,#659);
#658 = CARTESIAN_POINT('',(127.56565895245,-4.935621531309,0.));
#659 = VECTOR('',#660,1.);
#660 = DIRECTION('',(0.,0.,1.));
#661 = ORIENTED_EDGE('',*,*,#299,.T.);
#662 = ORIENTED_EDGE('',*,*,#624,.F.);
#663 = CYLINDRICAL_SURFACE('',#664,6.000011790042);
#664 = AXIS2_PLACEMENT_3D('',#665,#666,#667);
#665 = CARTESIAN_POINT('',(129.84231589862,0.615682336261,0.));
#666 = DIRECTION('',(-0.,-0.,-1.));
#667 = DIRECTION('',(1.,0.,0.));
#668 = ADVANCED_FACE('',(#669),#675,.F.);
#669 = FACE_BOUND('',#670,.T.);
#670 = EDGE_LOOP('',(#671,#672,#673,#674));
#671 = ORIENTED_EDGE('',*,*,#162,.T.);
#672 = ORIENTED_EDGE('',*,*,#656,.T.);
#673 = ORIENTED_EDGE('',*,*,#290,.T.);
#674 = ORIENTED_EDGE('',*,*,#641,.F.);
#675 = CYLINDRICAL_SURFACE('',#676,106.12807967943);
#676 = AXIS2_PLACEMENT_3D('',#677,#678,#679);
#677 = CARTESIAN_POINT('',(80.883665730284,-100.2454363734,0.));
#678 = DIRECTION('',(-0.,-0.,-1.));
#679 = DIRECTION('',(1.,0.,0.));
#680 = ADVANCED_FACE('',(#681),#700,.F.);
#681 = FACE_BOUND('',#682,.T.);
#682 = EDGE_LOOP('',(#683,#684,#692,#699));
#683 = ORIENTED_EDGE('',*,*,#205,.T.);
#684 = ORIENTED_EDGE('',*,*,#685,.T.);
#685 = EDGE_CURVE('',#206,#686,#688,.T.);
#686 = VERTEX_POINT('',#687);
#687 = CARTESIAN_POINT('',(0.144908696296,14.289465616586,6.));
#688 = LINE('',#689,#690);
#689 = CARTESIAN_POINT('',(0.144908696296,14.289465616586,0.));
#690 = VECTOR('',#691,1.);
#691 = DIRECTION('',(0.,0.,1.));
#692 = ORIENTED_EDGE('',*,*,#693,.T.);
#693 = EDGE_CURVE('',#686,#686,#694,.T.);
#694 = CIRCLE('',#695,2.25);
#695 = AXIS2_PLACEMENT_3D('',#696,#697,#698);
#696 = CARTESIAN_POINT('',(-2.105091303704,14.289465616586,6.));
#697 = DIRECTION('',(0.,0.,1.));
#698 = DIRECTION('',(1.,0.,0.));
#699 = ORIENTED_EDGE('',*,*,#685,.F.);
#700 = CYLINDRICAL_SURFACE('',#701,2.25);
#701 = AXIS2_PLACEMENT_3D('',#702,#703,#704);
#702 = CARTESIAN_POINT('',(-2.105091303704,14.289465616586,0.));
#703 = DIRECTION('',(-0.,-0.,-1.));
#704 = DIRECTION('',(1.,0.,0.));
#705 = ADVANCED_FACE('',(#706),#725,.F.);
#706 = FACE_BOUND('',#707,.T.);
#707 = EDGE_LOOP('',(#708,#709,#717,#724));
#708 = ORIENTED_EDGE('',*,*,#216,.T.);
#709 = ORIENTED_EDGE('',*,*,#710,.T.);
#710 = EDGE_CURVE('',#217,#711,#713,.T.);
#711 = VERTEX_POINT('',#712);
#712 = CARTESIAN_POINT('',(0.144908696295,94.782095383414,2.));
#713 = LINE('',#714,#715);
#714 = CARTESIAN_POINT('',(0.144908696295,94.782095383414,0.));
#715 = VECTOR('',#716,1.);
#716 = DIRECTION('',(0.,0.,1.));
#717 = ORIENTED_EDGE('',*,*,#718,.T.);
#718 = EDGE_CURVE('',#711,#711,#719,.T.);
#719 = CIRCLE('',#720,2.25);
#720 = AXIS2_PLACEMENT_3D('',#721,#722,#723);
#721 = CARTESIAN_POINT('',(-2.105091303705,94.782095383414,2.));
#722 = DIRECTION('',(0.,0.,1.));
#723 = DIRECTION('',(1.,0.,0.));
#724 = ORIENTED_EDGE('',*,*,#710,.F.);
#725 = CYLINDRICAL_SURFACE('',#726,2.25);
#726 = AXIS2_PLACEMENT_3D('',#727,#728,#729);
#727 = CARTESIAN_POINT('',(-2.105091303705,94.782095383414,0.));
#728 = DIRECTION('',(-0.,-0.,-1.));
#729 = DIRECTION('',(1.,0.,0.));
#730 = ADVANCED_FACE('',(#731),#750,.F.);
#731 = FACE_BOUND('',#732,.T.);
#732 = EDGE_LOOP('',(#733,#734,#742,#749));
#733 = ORIENTED_EDGE('',*,*,#227,.T.);
#734 = ORIENTED_EDGE('',*,*,#735,.T.);
#735 = EDGE_CURVE('',#228,#736,#738,.T.);
#736 = VERTEX_POINT('',#737);
#737 = CARTESIAN_POINT('',(133.25007524124,-2.151914690871,6.));
#738 = LINE('',#739,#740);
#739 = CARTESIAN_POINT('',(133.25007524124,-2.151914690871,0.));
#740 = VECTOR('',#741,1.);
#741 = DIRECTION('',(0.,0.,1.));
#742 = ORIENTED_EDGE('',*,*,#743,.T.);
#743 = EDGE_CURVE('',#736,#736,#744,.T.);
#744 = CIRCLE('',#745,2.25);
#745 = AXIS2_PLACEMENT_3D('',#746,#747,#748);
#746 = CARTESIAN_POINT('',(131.00007524124,-2.151914690871,6.));
#747 = DIRECTION('',(0.,0.,1.));
#748 = DIRECTION('',(1.,0.,0.));
#749 = ORIENTED_EDGE('',*,*,#735,.F.);
#750 = CYLINDRICAL_SURFACE('',#751,2.25);
#751 = AXIS2_PLACEMENT_3D('',#752,#753,#754);
#752 = CARTESIAN_POINT('',(131.00007524124,-2.151914690871,0.));
#753 = DIRECTION('',(-0.,-0.,-1.));
#754 = DIRECTION('',(1.,0.,0.));
#755 = ADVANCED_FACE('',(#756),#775,.F.);
#756 = FACE_BOUND('',#757,.T.);
#757 = EDGE_LOOP('',(#758,#759,#767,#774));
#758 = ORIENTED_EDGE('',*,*,#238,.T.);
#759 = ORIENTED_EDGE('',*,*,#760,.T.);
#760 = EDGE_CURVE('',#239,#761,#763,.T.);
#761 = VERTEX_POINT('',#762);
#762 = CARTESIAN_POINT('',(138.62504969017,94.782093996941,2.));
#763 = LINE('',#764,#765);
#764 = CARTESIAN_POINT('',(138.62504969017,94.782093996941,0.));
#765 = VECTOR('',#766,1.);
#766 = DIRECTION('',(0.,0.,1.));
#767 = ORIENTED_EDGE('',*,*,#768,.T.);
#768 = EDGE_CURVE('',#761,#761,#769,.T.);
#769 = CIRCLE('',#770,2.25);
#770 = AXIS2_PLACEMENT_3D('',#771,#772,#773);
#771 = CARTESIAN_POINT('',(136.37504969017,94.782093996941,2.));
#772 = DIRECTION('',(0.,0.,1.));
#773 = DIRECTION('',(1.,0.,0.));
#774 = ORIENTED_EDGE('',*,*,#760,.F.);
#775 = CYLINDRICAL_SURFACE('',#776,2.25);
#776 = AXIS2_PLACEMENT_3D('',#777,#778,#779);
#777 = CARTESIAN_POINT('',(136.37504969017,94.782093996941,0.));
#778 = DIRECTION('',(-0.,-0.,-1.));
#779 = DIRECTION('',(1.,0.,0.));
#780 = ADVANCED_FACE('',(#781),#799,.F.);
#781 = FACE_BOUND('',#782,.F.);
#782 = EDGE_LOOP('',(#783,#791,#797,#798));
#783 = ORIENTED_EDGE('',*,*,#784,.T.);
#784 = EDGE_CURVE('',#522,#785,#787,.T.);
#785 = VERTEX_POINT('',#786);
#786 = CARTESIAN_POINT('',(134.253729,56.840775960769,5.49999999997));
#787 = LINE('',#788,#789);
#788 = CARTESIAN_POINT('',(140.253729,56.840775960769,5.49999999997));
#789 = VECTOR('',#790,1.);
#790 = DIRECTION('',(-1.,-0.,-0.));
#791 = ORIENTED_EDGE('',*,*,#792,.T.);
#792 = EDGE_CURVE('',#785,#421,#793,.T.);
#793 = LINE('',#794,#795);
#794 = CARTESIAN_POINT('',(134.253729,56.840775960769,5.49999999997));
#795 = VECTOR('',#796,1.);
#796 = DIRECTION('',(0.,0.,1.));
#797 = ORIENTED_EDGE('',*,*,#428,.F.);
#798 = ORIENTED_EDGE('',*,*,#521,.F.);
#799 = PLANE('',#800);
#800 = AXIS2_PLACEMENT_3D('',#801,#802,#803);
#801 = CARTESIAN_POINT('',(140.253729,56.840775960769,5.49999999997));
#802 = DIRECTION('',(0.,1.,0.));
#803 = DIRECTION('',(0.,0.,1.));
#804 = ADVANCED_FACE('',(#805),#880,.T.);
#805 = FACE_BOUND('',#806,.T.);
#806 = EDGE_LOOP('',(#807,#808,#816,#824,#832,#840,#846,#847,#855,#864,
    #872,#879));
#807 = ORIENTED_EDGE('',*,*,#420,.F.);
#808 = ORIENTED_EDGE('',*,*,#809,.T.);
#809 = EDGE_CURVE('',#413,#810,#812,.T.);
#810 = VERTEX_POINT('',#811);
#811 = CARTESIAN_POINT('',(134.253729,92.660774,2.));
#812 = LINE('',#813,#814);
#813 = CARTESIAN_POINT('',(134.253729,92.660774,7.));
#814 = VECTOR('',#815,1.);
#815 = DIRECTION('',(-0.,-0.,-1.));
#816 = ORIENTED_EDGE('',*,*,#817,.F.);
#817 = EDGE_CURVE('',#818,#810,#820,.T.);
#818 = VERTEX_POINT('',#819);
#819 = CARTESIAN_POINT('',(134.253729,62.660774,2.));
#820 = LINE('',#821,#822);
#821 = CARTESIAN_POINT('',(134.253729,62.660774,2.));
#822 = VECTOR('',#823,1.);
#823 = DIRECTION('',(0.,1.,0.));
#824 = ORIENTED_EDGE('',*,*,#825,.F.);
#825 = EDGE_CURVE('',#826,#818,#828,.T.);
#826 = VERTEX_POINT('',#827);
#827 = CARTESIAN_POINT('',(134.253729,62.660774,4.));
#828 = LINE('',#829,#830);
#829 = CARTESIAN_POINT('',(134.253729,62.660774,8.));
#830 = VECTOR('',#831,1.);
#831 = DIRECTION('',(-0.,-0.,-1.));
#832 = ORIENTED_EDGE('',*,*,#833,.T.);
#833 = EDGE_CURVE('',#826,#834,#836,.T.);
#834 = VERTEX_POINT('',#835);
#835 = CARTESIAN_POINT('',(134.253729,31.850939,4.));
#836 = LINE('',#837,#838);
#837 = CARTESIAN_POINT('',(134.253729,92.660774,4.));
#838 = VECTOR('',#839,1.);
#839 = DIRECTION('',(0.,-1.,0.));
#840 = ORIENTED_EDGE('',*,*,#841,.F.);
#841 = EDGE_CURVE('',#341,#834,#842,.T.);
#842 = LINE('',#843,#844);
#843 = CARTESIAN_POINT('',(134.253729,31.850939,7.));
#844 = VECTOR('',#845,1.);
#845 = DIRECTION('',(-0.,-0.,-1.));
#846 = ORIENTED_EDGE('',*,*,#340,.F.);
#847 = ORIENTED_EDGE('',*,*,#848,.T.);
#848 = EDGE_CURVE('',#333,#849,#851,.T.);
#849 = VERTEX_POINT('',#850);
#850 = CARTESIAN_POINT('',(134.253729,46.84077596077,5.49999999997));
#851 = LINE('',#852,#853);
#852 = CARTESIAN_POINT('',(134.253729,46.84077596077,7.));
#853 = VECTOR('',#854,1.);
#854 = DIRECTION('',(0.,0.,-1.));
#855 = ORIENTED_EDGE('',*,*,#856,.T.);
#856 = EDGE_CURVE('',#849,#857,#859,.T.);
#857 = VERTEX_POINT('',#858);
#858 = CARTESIAN_POINT('',(134.253729,47.340775960769,4.99999999997));
#859 = CIRCLE('',#860,0.5);
#860 = AXIS2_PLACEMENT_3D('',#861,#862,#863);
#861 = CARTESIAN_POINT('',(134.253729,47.340775960769,5.49999999997));
#862 = DIRECTION('',(1.,0.,0.));
#863 = DIRECTION('',(0.,1.,0.));
#864 = ORIENTED_EDGE('',*,*,#865,.T.);
#865 = EDGE_CURVE('',#857,#866,#868,.T.);
#866 = VERTEX_POINT('',#867);
#867 = CARTESIAN_POINT('',(134.253729,56.340775960769,4.99999999997));
#868 = LINE('',#869,#870);
#869 = CARTESIAN_POINT('',(134.253729,47.340775960769,4.99999999997));
#870 = VECTOR('',#871,1.);
#871 = DIRECTION('',(0.,1.,0.));
#872 = ORIENTED_EDGE('',*,*,#873,.T.);
#873 = EDGE_CURVE('',#866,#785,#874,.T.);
#874 = CIRCLE('',#875,0.5);
#875 = AXIS2_PLACEMENT_3D('',#876,#877,#878);
#876 = CARTESIAN_POINT('',(134.253729,56.340775960769,5.49999999997));
#877 = DIRECTION('',(1.,0.,0.));
#878 = DIRECTION('',(0.,1.,0.));
#879 = ORIENTED_EDGE('',*,*,#792,.T.);
#880 = PLANE('',#881);
#881 = AXIS2_PLACEMENT_3D('',#882,#883,#884);
#882 = CARTESIAN_POINT('',(134.253729,62.724021098802,4.968164598802));
#883 = DIRECTION('',(-1.,-0.,-0.));
#884 = DIRECTION('',(0.,0.,-1.));
#885 = ADVANCED_FACE('',(#886),#904,.T.);
#886 = FACE_BOUND('',#887,.T.);
#887 = EDGE_LOOP('',(#888,#896,#902,#903));
#888 = ORIENTED_EDGE('',*,*,#889,.T.);
#889 = EDGE_CURVE('',#405,#890,#892,.T.);
#890 = VERTEX_POINT('',#891);
#891 = CARTESIAN_POINT('',(1.622800000001E-02,92.660774,2.));
#892 = LINE('',#893,#894);
#893 = CARTESIAN_POINT('',(1.622800000001E-02,92.660774,8.));
#894 = VECTOR('',#895,1.);
#895 = DIRECTION('',(-0.,-0.,-1.));
#896 = ORIENTED_EDGE('',*,*,#897,.F.);
#897 = EDGE_CURVE('',#810,#890,#898,.T.);
#898 = LINE('',#899,#900);
#899 = CARTESIAN_POINT('',(134.253729,92.660774,2.));
#900 = VECTOR('',#901,1.);
#901 = DIRECTION('',(-1.,0.,0.));
#902 = ORIENTED_EDGE('',*,*,#809,.F.);
#903 = ORIENTED_EDGE('',*,*,#412,.F.);
#904 = PLANE('',#905);
#905 = AXIS2_PLACEMENT_3D('',#906,#907,#908);
#906 = CARTESIAN_POINT('',(67.1349785,92.660774,4.5));
#907 = DIRECTION('',(-0.,-1.,-0.));
#908 = DIRECTION('',(0.,0.,-1.));
#909 = ADVANCED_FACE('',(#910),#944,.T.);
#910 = FACE_BOUND('',#911,.T.);
#911 = EDGE_LOOP('',(#912,#913,#921,#929,#937,#943));
#912 = ORIENTED_EDGE('',*,*,#404,.F.);
#913 = ORIENTED_EDGE('',*,*,#914,.T.);
#914 = EDGE_CURVE('',#397,#915,#917,.T.);
#915 = VERTEX_POINT('',#916);
#916 = CARTESIAN_POINT('',(1.6228E-02,16.410787,4.));
#917 = LINE('',#918,#919);
#918 = CARTESIAN_POINT('',(1.6228E-02,16.410787,7.));
#919 = VECTOR('',#920,1.);
#920 = DIRECTION('',(-0.,-0.,-1.));
#921 = ORIENTED_EDGE('',*,*,#922,.T.);
#922 = EDGE_CURVE('',#915,#923,#925,.T.);
#923 = VERTEX_POINT('',#924);
#924 = CARTESIAN_POINT('',(1.622800000001E-02,62.660774,4.));
#925 = LINE('',#926,#927);
#926 = CARTESIAN_POINT('',(1.6228E-02,16.410787,4.));
#927 = VECTOR('',#928,1.);
#928 = DIRECTION('',(0.,1.,0.));
#929 = ORIENTED_EDGE('',*,*,#930,.T.);
#930 = EDGE_CURVE('',#923,#931,#933,.T.);
#931 = VERTEX_POINT('',#932);
#932 = CARTESIAN_POINT('',(1.622800000001E-02,62.660774,2.));
#933 = LINE('',#934,#935);
#934 = CARTESIAN_POINT('',(1.622800000001E-02,62.660774,8.));
#935 = VECTOR('',#936,1.);
#936 = DIRECTION('',(-0.,-0.,-1.));
#937 = ORIENTED_EDGE('',*,*,#938,.F.);
#938 = EDGE_CURVE('',#890,#931,#939,.T.);
#939 = LINE('',#940,#941);
#940 = CARTESIAN_POINT('',(1.622800000001E-02,92.660774,2.));
#941 = VECTOR('',#942,1.);
#942 = DIRECTION('',(0.,-1.,0.));
#943 = ORIENTED_EDGE('',*,*,#889,.F.);
#944 = PLANE('',#945);
#945 = AXIS2_PLACEMENT_3D('',#946,#947,#948);
#946 = CARTESIAN_POINT('',(1.6228E-02,55.105011200308,5.069230700308));
#947 = DIRECTION('',(1.,0.,1.763553271944E-15));
#948 = DIRECTION('',(-1.763553271944E-15,0.,1.));
#949 = ADVANCED_FACE('',(#950),#968,.T.);
#950 = FACE_BOUND('',#951,.T.);
#951 = EDGE_LOOP('',(#952,#960,#966,#967));
#952 = ORIENTED_EDGE('',*,*,#953,.T.);
#953 = EDGE_CURVE('',#389,#954,#956,.T.);
#954 = VERTEX_POINT('',#955);
#955 = CARTESIAN_POINT('',(57.216215,16.410787,4.));
#956 = LINE('',#957,#958);
#957 = CARTESIAN_POINT('',(57.216215,16.410787,7.));
#958 = VECTOR('',#959,1.);
#959 = DIRECTION('',(-0.,-0.,-1.));
#960 = ORIENTED_EDGE('',*,*,#961,.T.);
#961 = EDGE_CURVE('',#954,#915,#962,.T.);
#962 = LINE('',#963,#964);
#963 = CARTESIAN_POINT('',(57.216215,16.410787,4.));
#964 = VECTOR('',#965,1.);
#965 = DIRECTION('',(-1.,0.,0.));
#966 = ORIENTED_EDGE('',*,*,#914,.F.);
#967 = ORIENTED_EDGE('',*,*,#396,.F.);
#968 = PLANE('',#969);
#969 = AXIS2_PLACEMENT_3D('',#970,#971,#972);
#970 = CARTESIAN_POINT('',(57.216215,16.410787,7.));
#971 = DIRECTION('',(0.,1.,0.));
#972 = DIRECTION('',(-1.,0.,0.));
#973 = ADVANCED_FACE('',(#974),#992,.T.);
#974 = FACE_BOUND('',#975,.T.);
#975 = EDGE_LOOP('',(#976,#984,#990,#991));
#976 = ORIENTED_EDGE('',*,*,#977,.T.);
#977 = EDGE_CURVE('',#381,#978,#980,.T.);
#978 = VERTEX_POINT('',#979);
#979 = CARTESIAN_POINT('',(73.834978,11.648287,4.));
#980 = LINE('',#981,#982);
#981 = CARTESIAN_POINT('',(73.834978,11.648287,7.));
#982 = VECTOR('',#983,1.);
#983 = DIRECTION('',(-0.,-0.,-1.));
#984 = ORIENTED_EDGE('',*,*,#985,.T.);
#985 = EDGE_CURVE('',#978,#954,#986,.T.);
#986 = LINE('',#987,#988);
#987 = CARTESIAN_POINT('',(73.834978,11.648287,4.));
#988 = VECTOR('',#989,1.);
#989 = DIRECTION('',(-0.961305419591,0.275484827649,0.));
#990 = ORIENTED_EDGE('',*,*,#953,.F.);
#991 = ORIENTED_EDGE('',*,*,#388,.F.);
#992 = PLANE('',#993);
#993 = AXIS2_PLACEMENT_3D('',#994,#995,#996);
#994 = CARTESIAN_POINT('',(73.834978,11.648287,7.));
#995 = DIRECTION('',(0.275484827649,0.961305419591,0.));
#996 = DIRECTION('',(-0.961305419591,0.275484827649,0.));
#997 = ADVANCED_FACE('',(#998),#1016,.T.);
#998 = FACE_BOUND('',#999,.T.);
#999 = EDGE_LOOP('',(#1000,#1008,#1014,#1015));
#1000 = ORIENTED_EDGE('',*,*,#1001,.T.);
#1001 = EDGE_CURVE('',#373,#1002,#1004,.T.);
#1002 = VERTEX_POINT('',#1003);
#1003 = CARTESIAN_POINT('',(92.907559,11.648287,4.));
#1004 = LINE('',#1005,#1006);
#1005 = CARTESIAN_POINT('',(92.907559,11.648287,7.));
#1006 = VECTOR('',#1007,1.);
#1007 = DIRECTION('',(-0.,-0.,-1.));
#1008 = ORIENTED_EDGE('',*,*,#1009,.T.);
#1009 = EDGE_CURVE('',#1002,#978,#1010,.T.);
#1010 = LINE('',#1011,#1012);
#1011 = CARTESIAN_POINT('',(92.907559,11.648287,4.));
#1012 = VECTOR('',#1013,1.);
#1013 = DIRECTION('',(-1.,0.,0.));
#1014 = ORIENTED_EDGE('',*,*,#977,.F.);
#1015 = ORIENTED_EDGE('',*,*,#380,.F.);
#1016 = PLANE('',#1017);
#1017 = AXIS2_PLACEMENT_3D('',#1018,#1019,#1020);
#1018 = CARTESIAN_POINT('',(92.907559,11.648287,7.));
#1019 = DIRECTION('',(0.,1.,0.));
#1020 = DIRECTION('',(-1.,0.,0.));
#1021 = ADVANCED_FACE('',(#1022),#1040,.T.);
#1022 = FACE_BOUND('',#1023,.T.);
#1023 = EDGE_LOOP('',(#1024,#1032,#1038,#1039));
#1024 = ORIENTED_EDGE('',*,*,#1025,.T.);
#1025 = EDGE_CURVE('',#365,#1026,#1028,.T.);
#1026 = VERTEX_POINT('',#1027);
#1027 = CARTESIAN_POINT('',(112.021516,7.924215,4.));
#1028 = LINE('',#1029,#1030);
#1029 = CARTESIAN_POINT('',(112.021516,7.924215,7.));
#1030 = VECTOR('',#1031,1.);
#1031 = DIRECTION('',(-0.,-0.,-1.));
#1032 = ORIENTED_EDGE('',*,*,#1033,.T.);
#1033 = EDGE_CURVE('',#1026,#1002,#1034,.T.);
#1034 = LINE('',#1035,#1036);
#1035 = CARTESIAN_POINT('',(112.021516,7.924215,4.));
#1036 = VECTOR('',#1037,1.);
#1037 = DIRECTION('',(-0.981543455629,0.191239234236,0.));
#1038 = ORIENTED_EDGE('',*,*,#1001,.F.);
#1039 = ORIENTED_EDGE('',*,*,#372,.F.);
#1040 = PLANE('',#1041);
#1041 = AXIS2_PLACEMENT_3D('',#1042,#1043,#1044);
#1042 = CARTESIAN_POINT('',(112.021516,7.924215,7.));
#1043 = DIRECTION('',(0.191239234236,0.981543455629,0.));
#1044 = DIRECTION('',(-0.981543455629,0.191239234236,0.));
#1045 = ADVANCED_FACE('',(#1046),#1057,.F.);
#1046 = FACE_BOUND('',#1047,.F.);
#1047 = EDGE_LOOP('',(#1048,#1049,#1050,#1056));
#1048 = ORIENTED_EDGE('',*,*,#332,.T.);
#1049 = ORIENTED_EDGE('',*,*,#848,.T.);
#1050 = ORIENTED_EDGE('',*,*,#1051,.F.);
#1051 = EDGE_CURVE('',#547,#849,#1052,.T.);
#1052 = LINE('',#1053,#1054);
#1053 = CARTESIAN_POINT('',(140.253729,46.84077596077,5.49999999997));
#1054 = VECTOR('',#1055,1.);
#1055 = DIRECTION('',(-1.,-0.,-0.));
#1056 = ORIENTED_EDGE('',*,*,#555,.F.);
#1057 = PLANE('',#1058);
#1058 = AXIS2_PLACEMENT_3D('',#1059,#1060,#1061);
#1059 = CARTESIAN_POINT('',(140.253729,46.84077596077,7.));
#1060 = DIRECTION('',(0.,-1.,0.));
#1061 = DIRECTION('',(0.,0.,-1.));
#1062 = ADVANCED_FACE('',(#1063),#1081,.T.);
#1063 = FACE_BOUND('',#1064,.T.);
#1064 = EDGE_LOOP('',(#1065,#1073,#1079,#1080));
#1065 = ORIENTED_EDGE('',*,*,#1066,.T.);
#1066 = EDGE_CURVE('',#357,#1067,#1069,.T.);
#1067 = VERTEX_POINT('',#1068);
#1068 = CARTESIAN_POINT('',(129.84231589862,0.615682336261,4.));
#1069 = LINE('',#1070,#1071);
#1070 = CARTESIAN_POINT('',(129.84231589862,0.615682336261,7.));
#1071 = VECTOR('',#1072,1.);
#1072 = DIRECTION('',(-0.,-0.,-1.));
#1073 = ORIENTED_EDGE('',*,*,#1074,.T.);
#1074 = EDGE_CURVE('',#1067,#1026,#1075,.T.);
#1075 = LINE('',#1076,#1077);
#1076 = CARTESIAN_POINT('',(129.84231589862,0.615682336261,4.));
#1077 = VECTOR('',#1078,1.);
#1078 = DIRECTION('',(-0.925215369207,0.379442381111,0.));
#1079 = ORIENTED_EDGE('',*,*,#1025,.F.);
#1080 = ORIENTED_EDGE('',*,*,#364,.F.);
#1081 = PLANE('',#1082);
#1082 = AXIS2_PLACEMENT_3D('',#1083,#1084,#1085);
#1083 = CARTESIAN_POINT('',(129.84231589862,0.615682336261,7.));
#1084 = DIRECTION('',(0.379442381111,0.925215369207,0.));
#1085 = DIRECTION('',(-0.925215369207,0.379442381111,0.));
#1086 = ADVANCED_FACE('',(#1087),#1105,.T.);
#1087 = FACE_BOUND('',#1088,.T.);
#1088 = EDGE_LOOP('',(#1089,#1097,#1103,#1104));
#1089 = ORIENTED_EDGE('',*,*,#1090,.T.);
#1090 = EDGE_CURVE('',#349,#1091,#1093,.T.);
#1091 = VERTEX_POINT('',#1092);
#1092 = CARTESIAN_POINT('',(137.1548006358,18.345916814423,4.));
#1093 = LINE('',#1094,#1095);
#1094 = CARTESIAN_POINT('',(137.1548006358,18.345916814423,7.));
#1095 = VECTOR('',#1096,1.);
#1096 = DIRECTION('',(-0.,-0.,-1.));
#1097 = ORIENTED_EDGE('',*,*,#1098,.T.);
#1098 = EDGE_CURVE('',#1091,#1067,#1099,.T.);
#1099 = LINE('',#1100,#1101);
#1100 = CARTESIAN_POINT('',(137.1548006358,18.345916814423,4.));
#1101 = VECTOR('',#1102,1.);
#1102 = DIRECTION('',(-0.381275804095,-0.924461335704,0.));
#1103 = ORIENTED_EDGE('',*,*,#1066,.F.);
#1104 = ORIENTED_EDGE('',*,*,#356,.F.);
#1105 = PLANE('',#1106);
#1106 = AXIS2_PLACEMENT_3D('',#1107,#1108,#1109);
#1107 = CARTESIAN_POINT('',(137.1548006358,18.345916814423,7.));
#1108 = DIRECTION('',(-0.924461335704,0.381275804095,0.));
#1109 = DIRECTION('',(-0.381275804095,-0.924461335704,0.));
#1110 = ADVANCED_FACE('',(#1111),#1122,.T.);
#1111 = FACE_BOUND('',#1112,.T.);
#1112 = EDGE_LOOP('',(#1113,#1114,#1120,#1121));
#1113 = ORIENTED_EDGE('',*,*,#841,.T.);
#1114 = ORIENTED_EDGE('',*,*,#1115,.T.);
#1115 = EDGE_CURVE('',#834,#1091,#1116,.T.);
#1116 = LINE('',#1117,#1118);
#1117 = CARTESIAN_POINT('',(134.253729,31.850939,4.));
#1118 = VECTOR('',#1119,1.);
#1119 = DIRECTION('',(0.210023152311,-0.977696412745,0.));
#1120 = ORIENTED_EDGE('',*,*,#1090,.F.);
#1121 = ORIENTED_EDGE('',*,*,#348,.F.);
#1122 = PLANE('',#1123);
#1123 = AXIS2_PLACEMENT_3D('',#1124,#1125,#1126);
#1124 = CARTESIAN_POINT('',(134.253729,31.850939,7.));
#1125 = DIRECTION('',(-0.977696412745,-0.210023152311,0.));
#1126 = DIRECTION('',(0.210023152311,-0.977696412745,0.));
#1127 = ADVANCED_FACE('',(#1128),#1147,.F.);
#1128 = FACE_BOUND('',#1129,.F.);
#1129 = EDGE_LOOP('',(#1130,#1138,#1139,#1140));
#1130 = ORIENTED_EDGE('',*,*,#1131,.F.);
#1131 = EDGE_CURVE('',#446,#1132,#1134,.T.);
#1132 = VERTEX_POINT('',#1133);
#1133 = CARTESIAN_POINT('',(-0.905091303704,14.289465616586,6.));
#1134 = LINE('',#1135,#1136);
#1135 = CARTESIAN_POINT('',(-0.905091303704,14.289465616586,7.));
#1136 = VECTOR('',#1137,1.);
#1137 = DIRECTION('',(-0.,-0.,-1.));
#1138 = ORIENTED_EDGE('',*,*,#445,.F.);
#1139 = ORIENTED_EDGE('',*,*,#1131,.T.);
#1140 = ORIENTED_EDGE('',*,*,#1141,.T.);
#1141 = EDGE_CURVE('',#1132,#1132,#1142,.T.);
#1142 = CIRCLE('',#1143,1.2);
#1143 = AXIS2_PLACEMENT_3D('',#1144,#1145,#1146);
#1144 = CARTESIAN_POINT('',(-2.105091303704,14.289465616586,6.));
#1145 = DIRECTION('',(0.,0.,1.));
#1146 = DIRECTION('',(1.,0.,0.));
#1147 = CYLINDRICAL_SURFACE('',#1148,1.2);
#1148 = AXIS2_PLACEMENT_3D('',#1149,#1150,#1151);
#1149 = CARTESIAN_POINT('',(-2.105091303704,14.289465616586,7.));
#1150 = DIRECTION('',(0.,0.,1.));
#1151 = DIRECTION('',(1.,0.,0.));
#1152 = ADVANCED_FACE('',(#1153),#1172,.F.);
#1153 = FACE_BOUND('',#1154,.F.);
#1154 = EDGE_LOOP('',(#1155,#1163,#1164,#1165));
#1155 = ORIENTED_EDGE('',*,*,#1156,.F.);
#1156 = EDGE_CURVE('',#457,#1157,#1159,.T.);
#1157 = VERTEX_POINT('',#1158);
#1158 = CARTESIAN_POINT('',(132.20007524124,-2.151914690871,6.));
#1159 = LINE('',#1160,#1161);
#1160 = CARTESIAN_POINT('',(132.20007524124,-2.151914690871,7.));
#1161 = VECTOR('',#1162,1.);
#1162 = DIRECTION('',(-0.,-0.,-1.));
#1163 = ORIENTED_EDGE('',*,*,#456,.F.);
#1164 = ORIENTED_EDGE('',*,*,#1156,.T.);
#1165 = ORIENTED_EDGE('',*,*,#1166,.T.);
#1166 = EDGE_CURVE('',#1157,#1157,#1167,.T.);
#1167 = CIRCLE('',#1168,1.2);
#1168 = AXIS2_PLACEMENT_3D('',#1169,#1170,#1171);
#1169 = CARTESIAN_POINT('',(131.00007524124,-2.151914690871,6.));
#1170 = DIRECTION('',(0.,0.,1.));
#1171 = DIRECTION('',(1.,0.,0.));
#1172 = CYLINDRICAL_SURFACE('',#1173,1.2);
#1173 = AXIS2_PLACEMENT_3D('',#1174,#1175,#1176);
#1174 = CARTESIAN_POINT('',(131.00007524124,-2.151914690871,7.));
#1175 = DIRECTION('',(0.,0.,1.));
#1176 = DIRECTION('',(1.,0.,0.));
#1177 = ADVANCED_FACE('',(#1178),#1197,.F.);
#1178 = FACE_BOUND('',#1179,.F.);
#1179 = EDGE_LOOP('',(#1180,#1188,#1189,#1190));
#1180 = ORIENTED_EDGE('',*,*,#1181,.F.);
#1181 = EDGE_CURVE('',#468,#1182,#1184,.T.);
#1182 = VERTEX_POINT('',#1183);
#1183 = CARTESIAN_POINT('',(-0.905091303705,94.782095383414,2.));
#1184 = LINE('',#1185,#1186);
#1185 = CARTESIAN_POINT('',(-0.905091303705,94.782095383414,7.));
#1186 = VECTOR('',#1187,1.);
#1187 = DIRECTION('',(-0.,-0.,-1.));
#1188 = ORIENTED_EDGE('',*,*,#467,.F.);
#1189 = ORIENTED_EDGE('',*,*,#1181,.T.);
#1190 = ORIENTED_EDGE('',*,*,#1191,.T.);
#1191 = EDGE_CURVE('',#1182,#1182,#1192,.T.);
#1192 = CIRCLE('',#1193,1.2);
#1193 = AXIS2_PLACEMENT_3D('',#1194,#1195,#1196);
#1194 = CARTESIAN_POINT('',(-2.105091303705,94.782095383414,2.));
#1195 = DIRECTION('',(0.,0.,1.));
#1196 = DIRECTION('',(1.,0.,0.));
#1197 = CYLINDRICAL_SURFACE('',#1198,1.2);
#1198 = AXIS2_PLACEMENT_3D('',#1199,#1200,#1201);
#1199 = CARTESIAN_POINT('',(-2.105091303705,94.782095383414,7.));
#1200 = DIRECTION('',(0.,0.,1.));
#1201 = DIRECTION('',(1.,0.,0.));
#1202 = ADVANCED_FACE('',(#1203),#1222,.F.);
#1203 = FACE_BOUND('',#1204,.F.);
#1204 = EDGE_LOOP('',(#1205,#1213,#1214,#1215));
#1205 = ORIENTED_EDGE('',*,*,#1206,.F.);
#1206 = EDGE_CURVE('',#479,#1207,#1209,.T.);
#1207 = VERTEX_POINT('',#1208);
#1208 = CARTESIAN_POINT('',(137.57504969017,94.782093996941,2.));
#1209 = LINE('',#1210,#1211);
#1210 = CARTESIAN_POINT('',(137.57504969017,94.782093996941,7.));
#1211 = VECTOR('',#1212,1.);
#1212 = DIRECTION('',(-0.,-0.,-1.));
#1213 = ORIENTED_EDGE('',*,*,#478,.F.);
#1214 = ORIENTED_EDGE('',*,*,#1206,.T.);
#1215 = ORIENTED_EDGE('',*,*,#1216,.T.);
#1216 = EDGE_CURVE('',#1207,#1207,#1217,.T.);
#1217 = CIRCLE('',#1218,1.2);
#1218 = AXIS2_PLACEMENT_3D('',#1219,#1220,#1221);
#1219 = CARTESIAN_POINT('',(136.37504969017,94.782093996941,2.));
#1220 = DIRECTION('',(0.,0.,1.));
#1221 = DIRECTION('',(1.,0.,0.));
#1222 = CYLINDRICAL_SURFACE('',#1223,1.2);
#1223 = AXIS2_PLACEMENT_3D('',#1224,#1225,#1226);
#1224 = CARTESIAN_POINT('',(136.37504969017,94.782093996941,7.));
#1225 = DIRECTION('',(0.,0.,1.));
#1226 = DIRECTION('',(1.,0.,0.));
#1227 = ADVANCED_FACE('',(#1228),#1239,.F.);
#1228 = FACE_BOUND('',#1229,.F.);
#1229 = EDGE_LOOP('',(#1230,#1231,#1232,#1238));
#1230 = ORIENTED_EDGE('',*,*,#1051,.T.);
#1231 = ORIENTED_EDGE('',*,*,#856,.T.);
#1232 = ORIENTED_EDGE('',*,*,#1233,.F.);
#1233 = EDGE_CURVE('',#539,#857,#1234,.T.);
#1234 = LINE('',#1235,#1236);
#1235 = CARTESIAN_POINT('',(140.253729,47.340775960769,4.99999999997));
#1236 = VECTOR('',#1237,1.);
#1237 = DIRECTION('',(-1.,-0.,-0.));
#1238 = ORIENTED_EDGE('',*,*,#546,.F.);
#1239 = CYLINDRICAL_SURFACE('',#1240,0.5);
#1240 = AXIS2_PLACEMENT_3D('',#1241,#1242,#1243);
#1241 = CARTESIAN_POINT('',(140.253729,47.340775960769,5.49999999997));
#1242 = DIRECTION('',(1.,0.,0.));
#1243 = DIRECTION('',(0.,1.,0.));
#1244 = ADVANCED_FACE('',(#1245),#1256,.F.);
#1245 = FACE_BOUND('',#1246,.F.);
#1246 = EDGE_LOOP('',(#1247,#1248,#1249,#1255));
#1247 = ORIENTED_EDGE('',*,*,#1233,.T.);
#1248 = ORIENTED_EDGE('',*,*,#865,.T.);
#1249 = ORIENTED_EDGE('',*,*,#1250,.F.);
#1250 = EDGE_CURVE('',#530,#866,#1251,.T.);
#1251 = LINE('',#1252,#1253);
#1252 = CARTESIAN_POINT('',(140.253729,56.340775960769,4.99999999997));
#1253 = VECTOR('',#1254,1.);
#1254 = DIRECTION('',(-1.,-0.,-0.));
#1255 = ORIENTED_EDGE('',*,*,#538,.F.);
#1256 = PLANE('',#1257);
#1257 = AXIS2_PLACEMENT_3D('',#1258,#1259,#1260);
#1258 = CARTESIAN_POINT('',(140.253729,47.340775960769,4.99999999997));
#1259 = DIRECTION('',(0.,0.,-1.));
#1260 = DIRECTION('',(0.,1.,0.));
#1261 = ADVANCED_FACE('',(#1262),#1268,.F.);
#1262 = FACE_BOUND('',#1263,.F.);
#1263 = EDGE_LOOP('',(#1264,#1265,#1266,#1267));
#1264 = ORIENTED_EDGE('',*,*,#1250,.T.);
#1265 = ORIENTED_EDGE('',*,*,#873,.T.);
#1266 = ORIENTED_EDGE('',*,*,#784,.F.);
#1267 = ORIENTED_EDGE('',*,*,#529,.F.);
#1268 = CYLINDRICAL_SURFACE('',#1269,0.5);
#1269 = AXIS2_PLACEMENT_3D('',#1270,#1271,#1272);
#1270 = CARTESIAN_POINT('',(140.253729,56.340775960769,5.49999999997));
#1271 = DIRECTION('',(1.,0.,0.));
#1272 = DIRECTION('',(0.,1.,0.));
#1273 = ADVANCED_FACE('',(#1274,#1277),#1280,.F.);
#1274 = FACE_BOUND('',#1275,.F.);
#1275 = EDGE_LOOP('',(#1276));
#1276 = ORIENTED_EDGE('',*,*,#693,.T.);
#1277 = FACE_BOUND('',#1278,.F.);
#1278 = EDGE_LOOP('',(#1279));
#1279 = ORIENTED_EDGE('',*,*,#1141,.F.);
#1280 = PLANE('',#1281);
#1281 = AXIS2_PLACEMENT_3D('',#1282,#1283,#1284);
#1282 = CARTESIAN_POINT('',(64.447491968768,6.068775462857,6.));
#1283 = DIRECTION('',(0.,0.,1.));
#1284 = DIRECTION('',(1.,0.,0.));
#1285 = ADVANCED_FACE('',(#1286,#1289),#1292,.F.);
#1286 = FACE_BOUND('',#1287,.F.);
#1287 = EDGE_LOOP('',(#1288));
#1288 = ORIENTED_EDGE('',*,*,#718,.T.);
#1289 = FACE_BOUND('',#1290,.F.);
#1290 = EDGE_LOOP('',(#1291));
#1291 = ORIENTED_EDGE('',*,*,#1191,.F.);
#1292 = PLANE('',#1293);
#1293 = AXIS2_PLACEMENT_3D('',#1294,#1295,#1296);
#1294 = CARTESIAN_POINT('',(67.134979193237,94.782094690178,2.));
#1295 = DIRECTION('',(0.,0.,1.));
#1296 = DIRECTION('',(1.,0.,0.));
#1297 = ADVANCED_FACE('',(#1298,#1301),#1304,.F.);
#1298 = FACE_BOUND('',#1299,.F.);
#1299 = EDGE_LOOP('',(#1300));
#1300 = ORIENTED_EDGE('',*,*,#743,.T.);
#1301 = FACE_BOUND('',#1302,.F.);
#1302 = EDGE_LOOP('',(#1303));
#1303 = ORIENTED_EDGE('',*,*,#1166,.F.);
#1304 = PLANE('',#1305);
#1305 = AXIS2_PLACEMENT_3D('',#1306,#1307,#1308);
#1306 = CARTESIAN_POINT('',(64.447491968768,6.068775462857,6.));
#1307 = DIRECTION('',(0.,0.,1.));
#1308 = DIRECTION('',(1.,0.,0.));
#1309 = ADVANCED_FACE('',(#1310,#1313),#1316,.F.);
#1310 = FACE_BOUND('',#1311,.F.);
#1311 = EDGE_LOOP('',(#1312));
#1312 = ORIENTED_EDGE('',*,*,#768,.T.);
#1313 = FACE_BOUND('',#1314,.F.);
#1314 = EDGE_LOOP('',(#1315));
#1315 = ORIENTED_EDGE('',*,*,#1216,.F.);
#1316 = PLANE('',#1317);
#1317 = AXIS2_PLACEMENT_3D('',#1318,#1319,#1320);
#1318 = CARTESIAN_POINT('',(67.134979193237,94.782094690178,2.));
#1319 = DIRECTION('',(0.,0.,1.));
#1320 = DIRECTION('',(1.,0.,0.));
#1321 = ADVANCED_FACE('',(#1322),#1339,.T.);
#1322 = FACE_BOUND('',#1323,.T.);
#1323 = EDGE_LOOP('',(#1324,#1330,#1331,#1332,#1333,#1334,#1335,#1336,
    #1337,#1338));
#1324 = ORIENTED_EDGE('',*,*,#1325,.F.);
#1325 = EDGE_CURVE('',#923,#826,#1326,.T.);
#1326 = LINE('',#1327,#1328);
#1327 = CARTESIAN_POINT('',(34.705249826744,62.660774,4.));
#1328 = VECTOR('',#1329,1.);
#1329 = DIRECTION('',(1.,0.,0.));
#1330 = ORIENTED_EDGE('',*,*,#922,.F.);
#1331 = ORIENTED_EDGE('',*,*,#961,.F.);
#1332 = ORIENTED_EDGE('',*,*,#985,.F.);
#1333 = ORIENTED_EDGE('',*,*,#1009,.F.);
#1334 = ORIENTED_EDGE('',*,*,#1033,.F.);
#1335 = ORIENTED_EDGE('',*,*,#1074,.F.);
#1336 = ORIENTED_EDGE('',*,*,#1098,.F.);
#1337 = ORIENTED_EDGE('',*,*,#1115,.F.);
#1338 = ORIENTED_EDGE('',*,*,#833,.F.);
#1339 = PLANE('',#1340);
#1340 = AXIS2_PLACEMENT_3D('',#1341,#1342,#1343);
#1341 = CARTESIAN_POINT('',(69.394271653488,51.736640364569,4.));
#1342 = DIRECTION('',(0.,0.,1.));
#1343 = DIRECTION('',(1.,0.,0.));
#1344 = ADVANCED_FACE('',(#1345),#1356,.F.);
#1345 = FACE_BOUND('',#1346,.F.);
#1346 = EDGE_LOOP('',(#1347,#1348,#1349,#1355));
#1347 = ORIENTED_EDGE('',*,*,#1325,.F.);
#1348 = ORIENTED_EDGE('',*,*,#930,.T.);
#1349 = ORIENTED_EDGE('',*,*,#1350,.T.);
#1350 = EDGE_CURVE('',#931,#818,#1351,.T.);
#1351 = LINE('',#1352,#1353);
#1352 = CARTESIAN_POINT('',(1.622800000001E-02,62.660774,2.));
#1353 = VECTOR('',#1354,1.);
#1354 = DIRECTION('',(1.,0.,0.));
#1355 = ORIENTED_EDGE('',*,*,#825,.F.);
#1356 = PLANE('',#1357);
#1357 = AXIS2_PLACEMENT_3D('',#1358,#1359,#1360);
#1358 = CARTESIAN_POINT('',(1.622800000001E-02,62.660774,8.));
#1359 = DIRECTION('',(0.,-1.,0.));
#1360 = DIRECTION('',(1.,0.,0.));
#1361 = ADVANCED_FACE('',(#1362),#1368,.T.);
#1362 = FACE_BOUND('',#1363,.T.);
#1363 = EDGE_LOOP('',(#1364,#1365,#1366,#1367));
#1364 = ORIENTED_EDGE('',*,*,#938,.T.);
#1365 = ORIENTED_EDGE('',*,*,#1350,.T.);
#1366 = ORIENTED_EDGE('',*,*,#817,.T.);
#1367 = ORIENTED_EDGE('',*,*,#897,.T.);
#1368 = PLANE('',#1369);
#1369 = AXIS2_PLACEMENT_3D('',#1370,#1371,#1372);
#1370 = CARTESIAN_POINT('',(67.1349785,77.660774,2.));
#1371 = DIRECTION('',(0.,0.,1.));
#1372 = DIRECTION('',(1.,0.,0.));
#1373 = ( GEOMETRIC_REPRESENTATION_CONTEXT(3) 
GLOBAL_UNCERTAINTY_ASSIGNED_CONTEXT((#1377)) 
GLOBAL_UNIT_ASSIGNED_CONTEXT((#1374,#1375,#1376)) REPRESENTATION_CONTEXT
('Context #1','3D Context with UNIT and UNCERTAINTY') );
#1374 = ( LENGTH_UNIT() NAMED_UNIT(*) SI_UNIT(.MILLI.,.METRE.) );
#1375 = ( NAMED_UNIT(*) PLANE_ANGLE_UNIT() SI_UNIT($,.RADIAN.) );
#1376 = ( NAMED_UNIT(*) SI_UNIT($,.STERADIAN.) SOLID_ANGLE_UNIT() );
#1377 = UNCERTAINTY_MEASURE_WITH_UNIT(LENGTH_MEASURE(2.E-04),#1374,
  'distance_accuracy_value','confusion accuracy');
#1378 = PRODUCT_RELATED_PRODUCT_CATEGORY('part',$,(#7));
#1379 = MECHANICAL_DESIGN_GEOMETRIC_PRESENTATION_REPRESENTATION('',(
    #1380),#1373);
#1380 = STYLED_ITEM('color',(#1381),#15);
#1381 = PRESENTATION_STYLE_ASSIGNMENT((#1382,#1388));
#1382 = SURFACE_STYLE_USAGE(.BOTH.,#1383);
#1383 = SURFACE_SIDE_STYLE('',(#1384));
#1384 = SURFACE_STYLE_FILL_AREA(#1385);
#1385 = FILL_AREA_STYLE('',(#1386));
#1386 = FILL_AREA_STYLE_COLOUR('',#1387);
#1387 = COLOUR_RGB('',0.447058818107,0.474509808674,0.501960817233);
#1388 = CURVE_STYLE('',#1389,POSITIVE_LENGTH_MEASURE(0.1),#1390);
#1389 = DRAUGHTING_PRE_DEFINED_CURVE_FONT('continuous');
#1390 = COLOUR_RGB('',9.803921802644E-02,9.803921802644E-02,
  9.803921802644E-02);
ENDSEC;
END-ISO-10303-21;
