ISO-10303-21;
HEADER;
FILE_DESCRIPTION(('FreeCAD Model'),'2;1');
FILE_NAME('Open CASCADE Shape Model','2026-01-25T23:09:13',(''),(''),
  'Open CASCADE STEP processor 7.8','FreeCAD','Unknown');
FILE_SCHEMA(('AUTOMOTIVE_DESIGN { 1 0 10303 214 1 1 1 1 }'));
ENDSEC;
DATA;
#1 = APPLICATION_PROTOCOL_DEFINITION('international standard',
  'automotive_design',2000,#2);
#2 = APPLICATION_CONTEXT(
  'core data for automotive mechanical design processes');
#3 = SHAPE_DEFINITION_REPRESENTATION(#4,#10);
#4 = PRODUCT_DEFINITION_SHAPE('','',#5);
#5 = PRODUCT_DEFINITION('design','',#6,#9);
#6 = PRODUCT_DEFINITION_FORMATION('','',#7);
#7 = PRODUCT('BackPlate_right_v2','BackPlate_right_v2','',(#8));
#8 = PRODUCT_CONTEXT('',#2,'mechanical');
#9 = PRODUCT_DEFINITION_CONTEXT('part definition',#2,'design');
#10 = ADVANCED_BREP_SHAPE_REPRESENTATION('',(#11,#15),#1373);
#11 = AXIS2_PLACEMENT_3D('',#12,#13,#14);
#12 = CARTESIAN_POINT('',(0.,0.,0.));
#13 = DIRECTION('',(0.,0.,1.));
#14 = DIRECTION('',(1.,0.,-0.));
#15 = MANIFOLD_SOLID_BREP('',#16);
#16 = CLOSED_SHELL('',(#17,#57,#90,#123,#251,#491,#549,#566,#583,#600,
    #617,#634,#651,#668,#680,#705,#730,#755,#780,#804,#853,#877,#917,
    #941,#965,#989,#1013,#1037,#1061,#1085,#1118,#1135,#1160,#1185,#1210
    ,#1235,#1252,#1284,#1296,#1308,#1320,#1332,#1344,#1361));
#17 = ADVANCED_FACE('',(#18),#52,.T.);
#18 = FACE_BOUND('',#19,.T.);
#19 = EDGE_LOOP('',(#20,#30,#38,#46));
#20 = ORIENTED_EDGE('',*,*,#21,.T.);
#21 = EDGE_CURVE('',#22,#24,#26,.T.);
#22 = VERTEX_POINT('',#23);
#23 = CARTESIAN_POINT('',(170.078828,98.64933,0.));
#24 = VERTEX_POINT('',#25);
#25 = CARTESIAN_POINT('',(170.078828,98.64933,6.));
#26 = LINE('',#27,#28);
#27 = CARTESIAN_POINT('',(170.078828,98.64933,0.));
#28 = VECTOR('',#29,1.);
#29 = DIRECTION('',(0.,0.,1.));
#30 = ORIENTED_EDGE('',*,*,#31,.T.);
#31 = EDGE_CURVE('',#24,#32,#34,.T.);
#32 = VERTEX_POINT('',#33);
#33 = CARTESIAN_POINT('',(304.31633,98.64933,6.));
#34 = LINE('',#35,#36);
#35 = CARTESIAN_POINT('',(170.078828,98.64933,6.));
#36 = VECTOR('',#37,1.);
#37 = DIRECTION('',(1.,0.,0.));
#38 = ORIENTED_EDGE('',*,*,#39,.F.);
#39 = EDGE_CURVE('',#40,#32,#42,.T.);
#40 = VERTEX_POINT('',#41);
#41 = CARTESIAN_POINT('',(304.31633,98.64933,0.));
#42 = LINE('',#43,#44);
#43 = CARTESIAN_POINT('',(304.31633,98.64933,0.));
#44 = VECTOR('',#45,1.);
#45 = DIRECTION('',(0.,0.,1.));
#46 = ORIENTED_EDGE('',*,*,#47,.F.);
#47 = EDGE_CURVE('',#22,#40,#48,.T.);
#48 = LINE('',#49,#50);
#49 = CARTESIAN_POINT('',(170.078828,98.64933,0.));
#50 = VECTOR('',#51,1.);
#51 = DIRECTION('',(1.,0.,0.));
#52 = PLANE('',#53);
#53 = AXIS2_PLACEMENT_3D('',#54,#55,#56);
#54 = CARTESIAN_POINT('',(170.078828,98.64933,0.));
#55 = DIRECTION('',(0.,1.,0.));
#56 = DIRECTION('',(1.,0.,0.));
#57 = ADVANCED_FACE('',(#58),#85,.T.);
#58 = FACE_BOUND('',#59,.F.);
#59 = EDGE_LOOP('',(#60,#69,#70,#79));
#60 = ORIENTED_EDGE('',*,*,#61,.F.);
#61 = EDGE_CURVE('',#22,#62,#64,.T.);
#62 = VERTEX_POINT('',#63);
#63 = CARTESIAN_POINT('',(164.078828,92.649331960769,0.23168401762));
#64 = ELLIPSE('',#65,6.004471460429,6.);
#65 = AXIS2_PLACEMENT_3D('',#66,#67,#68);
#66 = CARTESIAN_POINT('',(170.078828,92.64933,0.231684093333));
#67 = DIRECTION('',(0.,3.858526014482E-02,0.999255311569));
#68 = DIRECTION('',(0.,0.999255311569,-3.858526014482E-02));
#69 = ORIENTED_EDGE('',*,*,#21,.T.);
#70 = ORIENTED_EDGE('',*,*,#71,.T.);
#71 = EDGE_CURVE('',#24,#72,#74,.T.);
#72 = VERTEX_POINT('',#73);
#73 = CARTESIAN_POINT('',(164.078828,92.649331960769,6.));
#74 = CIRCLE('',#75,6.);
#75 = AXIS2_PLACEMENT_3D('',#76,#77,#78);
#76 = CARTESIAN_POINT('',(170.078828,92.64933,6.));
#77 = DIRECTION('',(0.,0.,1.));
#78 = DIRECTION('',(1.,0.,0.));
#79 = ORIENTED_EDGE('',*,*,#80,.F.);
#80 = EDGE_CURVE('',#62,#72,#81,.T.);
#81 = LINE('',#82,#83);
#82 = CARTESIAN_POINT('',(164.078828,92.649331960769,0.));
#83 = VECTOR('',#84,1.);
#84 = DIRECTION('',(0.,0.,1.));
#85 = CYLINDRICAL_SURFACE('',#86,6.);
#86 = AXIS2_PLACEMENT_3D('',#87,#88,#89);
#87 = CARTESIAN_POINT('',(170.078828,92.64933,0.));
#88 = DIRECTION('',(-0.,-0.,-1.));
#89 = DIRECTION('',(1.,0.,0.));
#90 = ADVANCED_FACE('',(#91),#118,.T.);
#91 = FACE_BOUND('',#92,.F.);
#92 = EDGE_LOOP('',(#93,#102,#110,#117));
#93 = ORIENTED_EDGE('',*,*,#94,.F.);
#94 = EDGE_CURVE('',#95,#40,#97,.T.);
#95 = VERTEX_POINT('',#96);
#96 = CARTESIAN_POINT('',(310.31633,92.649331960769,0.23168401762));
#97 = ELLIPSE('',#98,6.004471460429,6.);
#98 = AXIS2_PLACEMENT_3D('',#99,#100,#101);
#99 = CARTESIAN_POINT('',(304.31633,92.64933,0.231684093333));
#100 = DIRECTION('',(0.,3.858526014482E-02,0.999255311569));
#101 = DIRECTION('',(0.,0.999255311569,-3.858526014482E-02));
#102 = ORIENTED_EDGE('',*,*,#103,.T.);
#103 = EDGE_CURVE('',#95,#104,#106,.T.);
#104 = VERTEX_POINT('',#105);
#105 = CARTESIAN_POINT('',(310.31633,92.649331960769,6.));
#106 = LINE('',#107,#108);
#107 = CARTESIAN_POINT('',(310.31633,92.649331960769,0.));
#108 = VECTOR('',#109,1.);
#109 = DIRECTION('',(0.,0.,1.));
#110 = ORIENTED_EDGE('',*,*,#111,.T.);
#111 = EDGE_CURVE('',#104,#32,#112,.T.);
#112 = CIRCLE('',#113,6.);
#113 = AXIS2_PLACEMENT_3D('',#114,#115,#116);
#114 = CARTESIAN_POINT('',(304.31633,92.64933,6.));
#115 = DIRECTION('',(0.,0.,1.));
#116 = DIRECTION('',(1.,0.,0.));
#117 = ORIENTED_EDGE('',*,*,#39,.F.);
#118 = CYLINDRICAL_SURFACE('',#119,6.);
#119 = AXIS2_PLACEMENT_3D('',#120,#121,#122);
#120 = CARTESIAN_POINT('',(304.31633,92.64933,0.));
#121 = DIRECTION('',(-0.,-0.,-1.));
#122 = DIRECTION('',(1.,0.,0.));
#123 = ADVANCED_FACE('',(#124,#202,#213,#224,#235),#246,.F.);
#124 = FACE_BOUND('',#125,.F.);
#125 = EDGE_LOOP('',(#126,#127,#128,#136,#144,#152,#161,#170,#178,#186,
    #195,#201));
#126 = ORIENTED_EDGE('',*,*,#47,.F.);
#127 = ORIENTED_EDGE('',*,*,#61,.T.);
#128 = ORIENTED_EDGE('',*,*,#129,.T.);
#129 = EDGE_CURVE('',#62,#130,#132,.T.);
#130 = VERTEX_POINT('',#131);
#131 = CARTESIAN_POINT('',(164.078828,31.839495,2.579796007948));
#132 = LINE('',#133,#134);
#133 = CARTESIAN_POINT('',(164.078828,43.859132445826,2.115669540644));
#134 = VECTOR('',#135,1.);
#135 = DIRECTION('',(0.,-0.999255311569,3.858526014482E-02));
#136 = ORIENTED_EDGE('',*,*,#137,.T.);
#137 = EDGE_CURVE('',#130,#138,#140,.T.);
#138 = VERTEX_POINT('',#139);
#139 = CARTESIAN_POINT('',(161.179393,18.342087,3.100985130418));
#140 = LINE('',#141,#142);
#141 = CARTESIAN_POINT('',(160.22457013958,13.89720938943,3.272619703615
    ));
#142 = VECTOR('',#143,1.);
#143 = DIRECTION('',(-0.209873572779,-0.977000429468,3.772590978116E-02)
  );
#144 = ORIENTED_EDGE('',*,*,#145,.T.);
#145 = EDGE_CURVE('',#138,#146,#148,.T.);
#146 = VERTEX_POINT('',#147);
#147 = CARTESIAN_POINT('',(169.36236104877,-1.498769743166,
    3.867120281333));
#148 = LINE('',#149,#150);
#149 = CARTESIAN_POINT('',(165.18248513332,8.635978278384,3.475776963578
    ));
#150 = VECTOR('',#151,1.);
#151 = DIRECTION('',(0.381033063895,-0.923872901629,3.567444259476E-02)
  );
#152 = ORIENTED_EDGE('',*,*,#153,.T.);
#153 = EDGE_CURVE('',#146,#154,#156,.T.);
#154 = VERTEX_POINT('',#155);
#155 = CARTESIAN_POINT('',(176.59324729735,-4.523642898384,
    3.983922780402));
#156 = ELLIPSE('',#157,5.546494238902,5.542363828811);
#157 = AXIS2_PLACEMENT_3D('',#158,#159,#160);
#158 = CARTESIAN_POINT('',(174.49024124493,0.604237985023,3.785914708203
    ));
#159 = DIRECTION('',(0.,3.858526014482E-02,0.999255311569));
#160 = DIRECTION('',(0.,0.999255311569,-3.858526014482E-02));
#161 = ORIENTED_EDGE('',*,*,#162,.F.);
#162 = EDGE_CURVE('',#163,#154,#165,.T.);
#163 = VERTEX_POINT('',#164);
#164 = CARTESIAN_POINT('',(230.49757999999,5.636842999992,3.591585619871
    ));
#165 = ELLIPSE('',#166,113.39537475177,113.3109305281);
#166 = AXIS2_PLACEMENT_3D('',#167,#168,#169);
#167 = CARTESIAN_POINT('',(223.90980569563,-107.4824224098,
    7.959574694028));
#168 = DIRECTION('',(0.,3.858526014482E-02,0.999255311569));
#169 = DIRECTION('',(0.,0.999255311569,-3.858526014482E-02));
#170 = ORIENTED_EDGE('',*,*,#171,.F.);
#171 = EDGE_CURVE('',#172,#163,#174,.T.);
#172 = VERTEX_POINT('',#173);
#173 = CARTESIAN_POINT('',(247.116342,10.399343000001,3.407686370787));
#174 = LINE('',#175,#176);
#175 = CARTESIAN_POINT('',(204.88835817469,-1.702086274232,
    3.874971149026));
#176 = VECTOR('',#177,1.);
#177 = DIRECTION('',(-0.961251030106,-0.275469257631,1.063697419922E-02)
  );
#178 = ORIENTED_EDGE('',*,*,#179,.F.);
#179 = EDGE_CURVE('',#180,#172,#182,.T.);
#180 = VERTEX_POINT('',#181);
#181 = CARTESIAN_POINT('',(304.31633196076,10.399343000001,
    3.407686370787));
#182 = LINE('',#183,#184);
#183 = CARTESIAN_POINT('',(232.19757998038,10.399343000001,
    3.407686370787));
#184 = VECTOR('',#185,1.);
#185 = DIRECTION('',(-1.,0.,0.));
#186 = ORIENTED_EDGE('',*,*,#187,.T.);
#187 = EDGE_CURVE('',#180,#188,#190,.T.);
#188 = VERTEX_POINT('',#189);
#189 = CARTESIAN_POINT('',(310.31633,16.399343,3.176002277455));
#190 = ELLIPSE('',#191,6.004471460428,6.);
#191 = AXIS2_PLACEMENT_3D('',#192,#193,#194);
#192 = CARTESIAN_POINT('',(304.31633,16.399343,3.176002277455));
#193 = DIRECTION('',(0.,3.858526014482E-02,0.999255311569));
#194 = DIRECTION('',(0.,0.999255311569,-3.858526014482E-02));
#195 = ORIENTED_EDGE('',*,*,#196,.F.);
#196 = EDGE_CURVE('',#95,#188,#197,.T.);
#197 = LINE('',#198,#199);
#198 = CARTESIAN_POINT('',(310.31633,43.859132445826,2.115669540644));
#199 = VECTOR('',#200,1.);
#200 = DIRECTION('',(0.,-0.999255311569,3.858526014482E-02));
#201 = ORIENTED_EDGE('',*,*,#94,.T.);
#202 = FACE_BOUND('',#203,.F.);
#203 = EDGE_LOOP('',(#204));
#204 = ORIENTED_EDGE('',*,*,#205,.T.);
#205 = EDGE_CURVE('',#206,#206,#208,.T.);
#206 = VERTEX_POINT('',#207);
#207 = CARTESIAN_POINT('',(308.68765069017,14.278023003059,
    3.257914960815));
#208 = CIRCLE('',#209,2.25);
#209 = AXIS2_PLACEMENT_3D('',#210,#211,#212);
#210 = CARTESIAN_POINT('',(306.43765069017,14.278023003059,
    3.257914960815));
#211 = DIRECTION('',(0.,-3.858526014482E-02,-0.999255311569));
#212 = DIRECTION('',(1.,0.,0.));
#213 = FACE_BOUND('',#214,.F.);
#214 = EDGE_LOOP('',(#215));
#215 = ORIENTED_EDGE('',*,*,#216,.T.);
#216 = EDGE_CURVE('',#217,#217,#219,.T.);
#217 = VERTEX_POINT('',#218);
#218 = CARTESIAN_POINT('',(308.68765069017,94.770649996941,
    0.149771409973));
#219 = CIRCLE('',#220,2.25);
#220 = AXIS2_PLACEMENT_3D('',#221,#222,#223);
#221 = CARTESIAN_POINT('',(306.43765069017,94.770649996941,
    0.149771409973));
#222 = DIRECTION('',(0.,-3.858526014482E-02,-0.999255311569));
#223 = DIRECTION('',(1.,0.,0.));
#224 = FACE_BOUND('',#225,.F.);
#225 = EDGE_LOOP('',(#226));
#226 = ORIENTED_EDGE('',*,*,#227,.T.);
#227 = EDGE_CURVE('',#228,#228,#230,.T.);
#228 = VERTEX_POINT('',#229);
#229 = CARTESIAN_POINT('',(175.58248099788,-2.163358663759,3.89278272825
    ));
#230 = CIRCLE('',#231,2.25);
#231 = AXIS2_PLACEMENT_3D('',#232,#233,#234);
#232 = CARTESIAN_POINT('',(173.33248099788,-2.163358663759,3.89278272825
    ));
#233 = DIRECTION('',(0.,-3.858526014482E-02,-0.999255311569));
#234 = DIRECTION('',(1.,0.,0.));
#235 = FACE_BOUND('',#236,.F.);
#236 = EDGE_LOOP('',(#237));
#237 = ORIENTED_EDGE('',*,*,#238,.T.);
#238 = EDGE_CURVE('',#239,#239,#241,.T.);
#239 = VERTEX_POINT('',#240);
#240 = CARTESIAN_POINT('',(170.20750869629,94.770651383414,
    0.149771356435));
#241 = CIRCLE('',#242,2.25);
#242 = AXIS2_PLACEMENT_3D('',#243,#244,#245);
#243 = CARTESIAN_POINT('',(167.95750869629,94.770651383414,
    0.149771356435));
#244 = DIRECTION('',(0.,-3.858526014482E-02,-0.999255311569));
#245 = DIRECTION('',(1.,0.,0.));
#246 = PLANE('',#247);
#247 = AXIS2_PLACEMENT_3D('',#248,#249,#250);
#248 = CARTESIAN_POINT('',(160.078828,-4.94,4.));
#249 = DIRECTION('',(0.,3.858526014482E-02,0.999255311569));
#250 = DIRECTION('',(0.,0.999255311569,-3.858526014482E-02));
#251 = ADVANCED_FACE('',(#252,#442,#453,#464,#475),#486,.T.);
#252 = FACE_BOUND('',#253,.T.);
#253 = EDGE_LOOP('',(#254,#255,#256,#264,#272,#280,#288,#296,#304,#312,
    #320,#328,#336,#344,#352,#360,#368,#376,#384,#392,#401,#410,#418,
    #426,#435,#441));
#254 = ORIENTED_EDGE('',*,*,#31,.F.);
#255 = ORIENTED_EDGE('',*,*,#71,.T.);
#256 = ORIENTED_EDGE('',*,*,#257,.T.);
#257 = EDGE_CURVE('',#72,#258,#260,.T.);
#258 = VERTEX_POINT('',#259);
#259 = CARTESIAN_POINT('',(164.078828,56.829331960769,6.));
#260 = LINE('',#261,#262);
#261 = CARTESIAN_POINT('',(164.078828,92.649331960769,6.));
#262 = VECTOR('',#263,1.);
#263 = DIRECTION('',(0.,-1.,0.));
#264 = ORIENTED_EDGE('',*,*,#265,.T.);
#265 = EDGE_CURVE('',#258,#266,#268,.T.);
#266 = VERTEX_POINT('',#267);
#267 = CARTESIAN_POINT('',(170.078828,56.829331960769,6.));
#268 = LINE('',#269,#270);
#269 = CARTESIAN_POINT('',(164.078828,56.829331960769,6.));
#270 = VECTOR('',#271,1.);
#271 = DIRECTION('',(1.,0.,0.));
#272 = ORIENTED_EDGE('',*,*,#273,.T.);
#273 = EDGE_CURVE('',#266,#274,#276,.T.);
#274 = VERTEX_POINT('',#275);
#275 = CARTESIAN_POINT('',(170.078828,92.64933,6.));
#276 = LINE('',#277,#278);
#277 = CARTESIAN_POINT('',(170.078828,31.839495,6.));
#278 = VECTOR('',#279,1.);
#279 = DIRECTION('',(0.,1.,0.));
#280 = ORIENTED_EDGE('',*,*,#281,.T.);
#281 = EDGE_CURVE('',#274,#282,#284,.T.);
#282 = VERTEX_POINT('',#283);
#283 = CARTESIAN_POINT('',(304.31633,92.64933,6.));
#284 = LINE('',#285,#286);
#285 = CARTESIAN_POINT('',(170.078828,92.64933,6.));
#286 = VECTOR('',#287,1.);
#287 = DIRECTION('',(1.,0.,0.));
#288 = ORIENTED_EDGE('',*,*,#289,.T.);
#289 = EDGE_CURVE('',#282,#290,#292,.T.);
#290 = VERTEX_POINT('',#291);
#291 = CARTESIAN_POINT('',(304.31633,16.399343,6.));
#292 = LINE('',#293,#294);
#293 = CARTESIAN_POINT('',(304.31633,92.64933,6.));
#294 = VECTOR('',#295,1.);
#295 = DIRECTION('',(0.,-1.,0.));
#296 = ORIENTED_EDGE('',*,*,#297,.T.);
#297 = EDGE_CURVE('',#290,#298,#300,.T.);
#298 = VERTEX_POINT('',#299);
#299 = CARTESIAN_POINT('',(247.116342,16.399343,6.));
#300 = LINE('',#301,#302);
#301 = CARTESIAN_POINT('',(304.31633,16.399343,6.));
#302 = VECTOR('',#303,1.);
#303 = DIRECTION('',(-1.,0.,0.));
#304 = ORIENTED_EDGE('',*,*,#305,.T.);
#305 = EDGE_CURVE('',#298,#306,#308,.T.);
#306 = VERTEX_POINT('',#307);
#307 = CARTESIAN_POINT('',(230.49758,11.636843,6.));
#308 = LINE('',#309,#310);
#309 = CARTESIAN_POINT('',(247.116342,16.399343,6.));
#310 = VECTOR('',#311,1.);
#311 = DIRECTION('',(-0.961305415201,-0.275484842968,0.));
#312 = ORIENTED_EDGE('',*,*,#313,.T.);
#313 = EDGE_CURVE('',#306,#314,#316,.T.);
#314 = VERTEX_POINT('',#315);
#315 = CARTESIAN_POINT('',(211.424999,11.636843,6.));
#316 = LINE('',#317,#318);
#317 = CARTESIAN_POINT('',(230.49758,11.636843,6.));
#318 = VECTOR('',#319,1.);
#319 = DIRECTION('',(-1.,0.,0.));
#320 = ORIENTED_EDGE('',*,*,#321,.T.);
#321 = EDGE_CURVE('',#314,#322,#324,.T.);
#322 = VERTEX_POINT('',#323);
#323 = CARTESIAN_POINT('',(192.311042,7.912771,6.));
#324 = LINE('',#325,#326);
#325 = CARTESIAN_POINT('',(211.424999,11.636843,6.));
#326 = VECTOR('',#327,1.);
#327 = DIRECTION('',(-0.981543455629,-0.191239234236,0.));
#328 = ORIENTED_EDGE('',*,*,#329,.T.);
#329 = EDGE_CURVE('',#322,#330,#332,.T.);
#330 = VERTEX_POINT('',#331);
#331 = CARTESIAN_POINT('',(174.49024124493,0.604237985023,6.));
#332 = LINE('',#333,#334);
#333 = CARTESIAN_POINT('',(192.311042,7.912771,6.));
#334 = VECTOR('',#335,1.);
#335 = DIRECTION('',(-0.925215369207,-0.379442381111,0.));
#336 = ORIENTED_EDGE('',*,*,#337,.F.);
#337 = EDGE_CURVE('',#338,#330,#340,.T.);
#338 = VERTEX_POINT('',#339);
#339 = CARTESIAN_POINT('',(167.1777573647,18.33447281417,6.));
#340 = LINE('',#341,#342);
#341 = CARTESIAN_POINT('',(167.1777573647,18.33447281417,6.));
#342 = VECTOR('',#343,1.);
#343 = DIRECTION('',(0.381275759458,-0.924461354114,0.));
#344 = ORIENTED_EDGE('',*,*,#345,.T.);
#345 = EDGE_CURVE('',#338,#346,#348,.T.);
#346 = VERTEX_POINT('',#347);
#347 = CARTESIAN_POINT('',(170.078828,31.839495,6.));
#348 = LINE('',#349,#350);
#349 = CARTESIAN_POINT('',(167.1777573647,18.33447281417,6.));
#350 = VECTOR('',#351,1.);
#351 = DIRECTION('',(0.21002308307,0.977696427618,0.));
#352 = ORIENTED_EDGE('',*,*,#353,.T.);
#353 = EDGE_CURVE('',#346,#354,#356,.T.);
#354 = VERTEX_POINT('',#355);
#355 = CARTESIAN_POINT('',(170.078828,46.829331960769,6.));
#356 = LINE('',#357,#358);
#357 = CARTESIAN_POINT('',(170.078828,31.839495,6.));
#358 = VECTOR('',#359,1.);
#359 = DIRECTION('',(0.,1.,0.));
#360 = ORIENTED_EDGE('',*,*,#361,.F.);
#361 = EDGE_CURVE('',#362,#354,#364,.T.);
#362 = VERTEX_POINT('',#363);
#363 = CARTESIAN_POINT('',(164.078828,46.829331960769,6.));
#364 = LINE('',#365,#366);
#365 = CARTESIAN_POINT('',(164.078828,46.829331960769,6.));
#366 = VECTOR('',#367,1.);
#367 = DIRECTION('',(1.,0.,0.));
#368 = ORIENTED_EDGE('',*,*,#369,.T.);
#369 = EDGE_CURVE('',#362,#370,#372,.T.);
#370 = VERTEX_POINT('',#371);
#371 = CARTESIAN_POINT('',(164.078828,31.839495,6.));
#372 = LINE('',#373,#374);
#373 = CARTESIAN_POINT('',(164.078828,92.649331960769,6.));
#374 = VECTOR('',#375,1.);
#375 = DIRECTION('',(0.,-1.,0.));
#376 = ORIENTED_EDGE('',*,*,#377,.T.);
#377 = EDGE_CURVE('',#370,#378,#380,.T.);
#378 = VERTEX_POINT('',#379);
#379 = CARTESIAN_POINT('',(161.179393,18.342087,6.));
#380 = LINE('',#381,#382);
#381 = CARTESIAN_POINT('',(164.078828,31.839495,6.));
#382 = VECTOR('',#383,1.);
#383 = DIRECTION('',(-0.21002308307,-0.977696427618,0.));
#384 = ORIENTED_EDGE('',*,*,#385,.T.);
#385 = EDGE_CURVE('',#378,#386,#388,.T.);
#386 = VERTEX_POINT('',#387);
#387 = CARTESIAN_POINT('',(169.36236104877,-1.498769743166,6.));
#388 = LINE('',#389,#390);
#389 = CARTESIAN_POINT('',(161.179393,18.342087,6.));
#390 = VECTOR('',#391,1.);
#391 = DIRECTION('',(0.381275759458,-0.924461354114,0.));
#392 = ORIENTED_EDGE('',*,*,#393,.T.);
#393 = EDGE_CURVE('',#386,#394,#396,.T.);
#394 = VERTEX_POINT('',#395);
#395 = CARTESIAN_POINT('',(176.59324729735,-4.523642898384,6.));
#396 = CIRCLE('',#397,5.542363828811);
#397 = AXIS2_PLACEMENT_3D('',#398,#399,#400);
#398 = CARTESIAN_POINT('',(174.49024124493,0.604237985023,6.));
#399 = DIRECTION('',(0.,0.,1.));
#400 = DIRECTION('',(1.,0.,0.));
#401 = ORIENTED_EDGE('',*,*,#402,.F.);
#402 = EDGE_CURVE('',#403,#394,#405,.T.);
#403 = VERTEX_POINT('',#404);
#404 = CARTESIAN_POINT('',(230.49757999999,5.636842999992,6.));
#405 = CIRCLE('',#406,113.3109305281);
#406 = AXIS2_PLACEMENT_3D('',#407,#408,#409);
#407 = CARTESIAN_POINT('',(223.90980569563,-107.4824224098,6.));
#408 = DIRECTION('',(0.,0.,1.));
#409 = DIRECTION('',(1.,0.,0.));
#410 = ORIENTED_EDGE('',*,*,#411,.F.);
#411 = EDGE_CURVE('',#412,#403,#414,.T.);
#412 = VERTEX_POINT('',#413);
#413 = CARTESIAN_POINT('',(247.116342,10.399343000001,6.));
#414 = LINE('',#415,#416);
#415 = CARTESIAN_POINT('',(247.116342,10.399343000001,6.));
#416 = VECTOR('',#417,1.);
#417 = DIRECTION('',(-0.961305415201,-0.275484842968,0.));
#418 = ORIENTED_EDGE('',*,*,#419,.F.);
#419 = EDGE_CURVE('',#420,#412,#422,.T.);
#420 = VERTEX_POINT('',#421);
#421 = CARTESIAN_POINT('',(304.31633196076,10.399343000001,6.));
#422 = LINE('',#423,#424);
#423 = CARTESIAN_POINT('',(304.31633196076,10.399343000001,6.));
#424 = VECTOR('',#425,1.);
#425 = DIRECTION('',(-1.,0.,0.));
#426 = ORIENTED_EDGE('',*,*,#427,.T.);
#427 = EDGE_CURVE('',#420,#428,#430,.T.);
#428 = VERTEX_POINT('',#429);
#429 = CARTESIAN_POINT('',(310.31633,16.399343,6.));
#430 = CIRCLE('',#431,6.);
#431 = AXIS2_PLACEMENT_3D('',#432,#433,#434);
#432 = CARTESIAN_POINT('',(304.31633,16.399343,6.));
#433 = DIRECTION('',(0.,0.,1.));
#434 = DIRECTION('',(1.,0.,0.));
#435 = ORIENTED_EDGE('',*,*,#436,.F.);
#436 = EDGE_CURVE('',#104,#428,#437,.T.);
#437 = LINE('',#438,#439);
#438 = CARTESIAN_POINT('',(310.31633,92.649331960769,6.));
#439 = VECTOR('',#440,1.);
#440 = DIRECTION('',(0.,-1.,0.));
#441 = ORIENTED_EDGE('',*,*,#111,.T.);
#442 = FACE_BOUND('',#443,.T.);
#443 = EDGE_LOOP('',(#444));
#444 = ORIENTED_EDGE('',*,*,#445,.F.);
#445 = EDGE_CURVE('',#446,#446,#448,.T.);
#446 = VERTEX_POINT('',#447);
#447 = CARTESIAN_POINT('',(174.53248099788,-2.163358663759,6.));
#448 = CIRCLE('',#449,1.2);
#449 = AXIS2_PLACEMENT_3D('',#450,#451,#452);
#450 = CARTESIAN_POINT('',(173.33248099788,-2.163358663759,6.));
#451 = DIRECTION('',(0.,0.,1.));
#452 = DIRECTION('',(1.,0.,0.));
#453 = FACE_BOUND('',#454,.T.);
#454 = EDGE_LOOP('',(#455));
#455 = ORIENTED_EDGE('',*,*,#456,.F.);
#456 = EDGE_CURVE('',#457,#457,#459,.T.);
#457 = VERTEX_POINT('',#458);
#458 = CARTESIAN_POINT('',(307.63765069017,14.278023003059,6.));
#459 = CIRCLE('',#460,1.2);
#460 = AXIS2_PLACEMENT_3D('',#461,#462,#463);
#461 = CARTESIAN_POINT('',(306.43765069017,14.278023003059,6.));
#462 = DIRECTION('',(0.,0.,1.));
#463 = DIRECTION('',(1.,0.,0.));
#464 = FACE_BOUND('',#465,.T.);
#465 = EDGE_LOOP('',(#466));
#466 = ORIENTED_EDGE('',*,*,#467,.F.);
#467 = EDGE_CURVE('',#468,#468,#470,.T.);
#468 = VERTEX_POINT('',#469);
#469 = CARTESIAN_POINT('',(169.15750869629,94.770651383414,6.));
#470 = CIRCLE('',#471,1.2);
#471 = AXIS2_PLACEMENT_3D('',#472,#473,#474);
#472 = CARTESIAN_POINT('',(167.95750869629,94.770651383414,6.));
#473 = DIRECTION('',(0.,0.,1.));
#474 = DIRECTION('',(1.,0.,0.));
#475 = FACE_BOUND('',#476,.T.);
#476 = EDGE_LOOP('',(#477));
#477 = ORIENTED_EDGE('',*,*,#478,.F.);
#478 = EDGE_CURVE('',#479,#479,#481,.T.);
#479 = VERTEX_POINT('',#480);
#480 = CARTESIAN_POINT('',(307.63765069017,94.770649996941,6.));
#481 = CIRCLE('',#482,1.2);
#482 = AXIS2_PLACEMENT_3D('',#483,#484,#485);
#483 = CARTESIAN_POINT('',(306.43765069017,94.770649996941,6.));
#484 = DIRECTION('',(0.,0.,1.));
#485 = DIRECTION('',(1.,0.,0.));
#486 = PLANE('',#487);
#487 = AXIS2_PLACEMENT_3D('',#488,#489,#490);
#488 = CARTESIAN_POINT('',(235.10079527,51.729102549465,6.));
#489 = DIRECTION('',(0.,0.,1.));
#490 = DIRECTION('',(1.,0.,0.));
#491 = ADVANCED_FACE('',(#492),#544,.F.);
#492 = FACE_BOUND('',#493,.F.);
#493 = EDGE_LOOP('',(#494,#495,#496,#497,#505,#514,#522,#531,#537,#538)
  );
#494 = ORIENTED_EDGE('',*,*,#129,.F.);
#495 = ORIENTED_EDGE('',*,*,#80,.T.);
#496 = ORIENTED_EDGE('',*,*,#257,.T.);
#497 = ORIENTED_EDGE('',*,*,#498,.T.);
#498 = EDGE_CURVE('',#258,#499,#501,.T.);
#499 = VERTEX_POINT('',#500);
#500 = CARTESIAN_POINT('',(164.078828,56.829331960769,4.5));
#501 = LINE('',#502,#503);
#502 = CARTESIAN_POINT('',(164.078828,56.829331960769,6.));
#503 = VECTOR('',#504,1.);
#504 = DIRECTION('',(0.,0.,-1.));
#505 = ORIENTED_EDGE('',*,*,#506,.T.);
#506 = EDGE_CURVE('',#499,#507,#509,.T.);
#507 = VERTEX_POINT('',#508);
#508 = CARTESIAN_POINT('',(164.078828,56.329331960769,4.));
#509 = CIRCLE('',#510,0.5);
#510 = AXIS2_PLACEMENT_3D('',#511,#512,#513);
#511 = CARTESIAN_POINT('',(164.078828,56.329331960769,4.5));
#512 = DIRECTION('',(-1.,0.,0.));
#513 = DIRECTION('',(0.,-1.,0.));
#514 = ORIENTED_EDGE('',*,*,#515,.T.);
#515 = EDGE_CURVE('',#507,#516,#518,.T.);
#516 = VERTEX_POINT('',#517);
#517 = CARTESIAN_POINT('',(164.078828,47.329331960769,4.));
#518 = LINE('',#519,#520);
#519 = CARTESIAN_POINT('',(164.078828,56.329331960769,4.));
#520 = VECTOR('',#521,1.);
#521 = DIRECTION('',(0.,-1.,0.));
#522 = ORIENTED_EDGE('',*,*,#523,.T.);
#523 = EDGE_CURVE('',#516,#524,#526,.T.);
#524 = VERTEX_POINT('',#525);
#525 = CARTESIAN_POINT('',(164.078828,46.829331960769,4.5));
#526 = CIRCLE('',#527,0.5);
#527 = AXIS2_PLACEMENT_3D('',#528,#529,#530);
#528 = CARTESIAN_POINT('',(164.078828,47.329331960769,4.5));
#529 = DIRECTION('',(-1.,0.,0.));
#530 = DIRECTION('',(0.,-1.,0.));
#531 = ORIENTED_EDGE('',*,*,#532,.T.);
#532 = EDGE_CURVE('',#524,#362,#533,.T.);
#533 = LINE('',#534,#535);
#534 = CARTESIAN_POINT('',(164.078828,46.829331960769,4.5));
#535 = VECTOR('',#536,1.);
#536 = DIRECTION('',(0.,0.,1.));
#537 = ORIENTED_EDGE('',*,*,#369,.T.);
#538 = ORIENTED_EDGE('',*,*,#539,.F.);
#539 = EDGE_CURVE('',#130,#370,#540,.T.);
#540 = LINE('',#541,#542);
#541 = CARTESIAN_POINT('',(164.078828,31.839495,0.));
#542 = VECTOR('',#543,1.);
#543 = DIRECTION('',(0.,0.,1.));
#544 = PLANE('',#545);
#545 = AXIS2_PLACEMENT_3D('',#546,#547,#548);
#546 = CARTESIAN_POINT('',(164.078828,92.649331960769,0.));
#547 = DIRECTION('',(1.,0.,0.));
#548 = DIRECTION('',(0.,-1.,0.));
#549 = ADVANCED_FACE('',(#550),#561,.T.);
#550 = FACE_BOUND('',#551,.T.);
#551 = EDGE_LOOP('',(#552,#553,#554,#555));
#552 = ORIENTED_EDGE('',*,*,#196,.F.);
#553 = ORIENTED_EDGE('',*,*,#103,.T.);
#554 = ORIENTED_EDGE('',*,*,#436,.T.);
#555 = ORIENTED_EDGE('',*,*,#556,.F.);
#556 = EDGE_CURVE('',#188,#428,#557,.T.);
#557 = LINE('',#558,#559);
#558 = CARTESIAN_POINT('',(310.31633,16.399343,0.));
#559 = VECTOR('',#560,1.);
#560 = DIRECTION('',(0.,0.,1.));
#561 = PLANE('',#562);
#562 = AXIS2_PLACEMENT_3D('',#563,#564,#565);
#563 = CARTESIAN_POINT('',(310.31633,92.649331960769,0.));
#564 = DIRECTION('',(1.,0.,0.));
#565 = DIRECTION('',(0.,-1.,0.));
#566 = ADVANCED_FACE('',(#567),#578,.F.);
#567 = FACE_BOUND('',#568,.F.);
#568 = EDGE_LOOP('',(#569,#570,#571,#572));
#569 = ORIENTED_EDGE('',*,*,#137,.F.);
#570 = ORIENTED_EDGE('',*,*,#539,.T.);
#571 = ORIENTED_EDGE('',*,*,#377,.T.);
#572 = ORIENTED_EDGE('',*,*,#573,.F.);
#573 = EDGE_CURVE('',#138,#378,#574,.T.);
#574 = LINE('',#575,#576);
#575 = CARTESIAN_POINT('',(161.179393,18.342087,0.));
#576 = VECTOR('',#577,1.);
#577 = DIRECTION('',(0.,0.,1.));
#578 = PLANE('',#579);
#579 = AXIS2_PLACEMENT_3D('',#580,#581,#582);
#580 = CARTESIAN_POINT('',(164.078828,31.839495,0.));
#581 = DIRECTION('',(0.977696427618,-0.21002308307,0.));
#582 = DIRECTION('',(-0.21002308307,-0.977696427618,0.));
#583 = ADVANCED_FACE('',(#584),#595,.T.);
#584 = FACE_BOUND('',#585,.F.);
#585 = EDGE_LOOP('',(#586,#587,#593,#594));
#586 = ORIENTED_EDGE('',*,*,#187,.F.);
#587 = ORIENTED_EDGE('',*,*,#588,.T.);
#588 = EDGE_CURVE('',#180,#420,#589,.T.);
#589 = LINE('',#590,#591);
#590 = CARTESIAN_POINT('',(304.31633196076,10.399343000001,0.));
#591 = VECTOR('',#592,1.);
#592 = DIRECTION('',(0.,0.,1.));
#593 = ORIENTED_EDGE('',*,*,#427,.T.);
#594 = ORIENTED_EDGE('',*,*,#556,.F.);
#595 = CYLINDRICAL_SURFACE('',#596,6.);
#596 = AXIS2_PLACEMENT_3D('',#597,#598,#599);
#597 = CARTESIAN_POINT('',(304.31633,16.399343,0.));
#598 = DIRECTION('',(-0.,-0.,-1.));
#599 = DIRECTION('',(1.,0.,0.));
#600 = ADVANCED_FACE('',(#601),#612,.F.);
#601 = FACE_BOUND('',#602,.F.);
#602 = EDGE_LOOP('',(#603,#604,#605,#606));
#603 = ORIENTED_EDGE('',*,*,#145,.F.);
#604 = ORIENTED_EDGE('',*,*,#573,.T.);
#605 = ORIENTED_EDGE('',*,*,#385,.T.);
#606 = ORIENTED_EDGE('',*,*,#607,.F.);
#607 = EDGE_CURVE('',#146,#386,#608,.T.);
#608 = LINE('',#609,#610);
#609 = CARTESIAN_POINT('',(169.36236104877,-1.498769743166,0.));
#610 = VECTOR('',#611,1.);
#611 = DIRECTION('',(0.,0.,1.));
#612 = PLANE('',#613);
#613 = AXIS2_PLACEMENT_3D('',#614,#615,#616);
#614 = CARTESIAN_POINT('',(161.179393,18.342087,0.));
#615 = DIRECTION('',(0.924461354114,0.381275759458,0.));
#616 = DIRECTION('',(0.381275759458,-0.924461354114,0.));
#617 = ADVANCED_FACE('',(#618),#629,.T.);
#618 = FACE_BOUND('',#619,.T.);
#619 = EDGE_LOOP('',(#620,#621,#622,#623));
#620 = ORIENTED_EDGE('',*,*,#179,.F.);
#621 = ORIENTED_EDGE('',*,*,#588,.T.);
#622 = ORIENTED_EDGE('',*,*,#419,.T.);
#623 = ORIENTED_EDGE('',*,*,#624,.F.);
#624 = EDGE_CURVE('',#172,#412,#625,.T.);
#625 = LINE('',#626,#627);
#626 = CARTESIAN_POINT('',(247.116342,10.399343000001,0.));
#627 = VECTOR('',#628,1.);
#628 = DIRECTION('',(0.,0.,1.));
#629 = PLANE('',#630);
#630 = AXIS2_PLACEMENT_3D('',#631,#632,#633);
#631 = CARTESIAN_POINT('',(304.31633196076,10.399343000001,0.));
#632 = DIRECTION('',(0.,-1.,0.));
#633 = DIRECTION('',(-1.,0.,0.));
#634 = ADVANCED_FACE('',(#635),#646,.T.);
#635 = FACE_BOUND('',#636,.F.);
#636 = EDGE_LOOP('',(#637,#638,#639,#640));
#637 = ORIENTED_EDGE('',*,*,#153,.F.);
#638 = ORIENTED_EDGE('',*,*,#607,.T.);
#639 = ORIENTED_EDGE('',*,*,#393,.T.);
#640 = ORIENTED_EDGE('',*,*,#641,.F.);
#641 = EDGE_CURVE('',#154,#394,#642,.T.);
#642 = LINE('',#643,#644);
#643 = CARTESIAN_POINT('',(176.59324729735,-4.523642898384,0.));
#644 = VECTOR('',#645,1.);
#645 = DIRECTION('',(0.,0.,1.));
#646 = CYLINDRICAL_SURFACE('',#647,5.542363828811);
#647 = AXIS2_PLACEMENT_3D('',#648,#649,#650);
#648 = CARTESIAN_POINT('',(174.49024124493,0.604237985023,0.));
#649 = DIRECTION('',(-0.,-0.,-1.));
#650 = DIRECTION('',(1.,0.,0.));
#651 = ADVANCED_FACE('',(#652),#663,.T.);
#652 = FACE_BOUND('',#653,.T.);
#653 = EDGE_LOOP('',(#654,#655,#656,#657));
#654 = ORIENTED_EDGE('',*,*,#171,.F.);
#655 = ORIENTED_EDGE('',*,*,#624,.T.);
#656 = ORIENTED_EDGE('',*,*,#411,.T.);
#657 = ORIENTED_EDGE('',*,*,#658,.F.);
#658 = EDGE_CURVE('',#163,#403,#659,.T.);
#659 = LINE('',#660,#661);
#660 = CARTESIAN_POINT('',(230.49757999999,5.636842999992,0.));
#661 = VECTOR('',#662,1.);
#662 = DIRECTION('',(0.,0.,1.));
#663 = PLANE('',#664);
#664 = AXIS2_PLACEMENT_3D('',#665,#666,#667);
#665 = CARTESIAN_POINT('',(247.116342,10.399343000001,0.));
#666 = DIRECTION('',(0.275484842968,-0.961305415201,0.));
#667 = DIRECTION('',(-0.961305415201,-0.275484842968,0.));
#668 = ADVANCED_FACE('',(#669),#675,.F.);
#669 = FACE_BOUND('',#670,.T.);
#670 = EDGE_LOOP('',(#671,#672,#673,#674));
#671 = ORIENTED_EDGE('',*,*,#162,.F.);
#672 = ORIENTED_EDGE('',*,*,#658,.T.);
#673 = ORIENTED_EDGE('',*,*,#402,.T.);
#674 = ORIENTED_EDGE('',*,*,#641,.F.);
#675 = CYLINDRICAL_SURFACE('',#676,113.3109305281);
#676 = AXIS2_PLACEMENT_3D('',#677,#678,#679);
#677 = CARTESIAN_POINT('',(223.90980569563,-107.4824224098,0.));
#678 = DIRECTION('',(-0.,-0.,-1.));
#679 = DIRECTION('',(1.,0.,0.));
#680 = ADVANCED_FACE('',(#681),#700,.F.);
#681 = FACE_BOUND('',#682,.F.);
#682 = EDGE_LOOP('',(#683,#691,#698,#699));
#683 = ORIENTED_EDGE('',*,*,#684,.T.);
#684 = EDGE_CURVE('',#206,#685,#687,.T.);
#685 = VERTEX_POINT('',#686);
#686 = CARTESIAN_POINT('',(308.68765069017,14.355193523348,
    5.256425583953));
#687 = LINE('',#688,#689);
#688 = CARTESIAN_POINT('',(308.68765069017,14.278023003059,
    3.257914960815));
#689 = VECTOR('',#690,1.);
#690 = DIRECTION('',(0.,3.858526014482E-02,0.999255311569));
#691 = ORIENTED_EDGE('',*,*,#692,.T.);
#692 = EDGE_CURVE('',#685,#685,#693,.T.);
#693 = CIRCLE('',#694,2.25);
#694 = AXIS2_PLACEMENT_3D('',#695,#696,#697);
#695 = CARTESIAN_POINT('',(306.43765069017,14.355193523348,
    5.256425583953));
#696 = DIRECTION('',(0.,-3.858526014482E-02,-0.999255311569));
#697 = DIRECTION('',(1.,0.,0.));
#698 = ORIENTED_EDGE('',*,*,#684,.F.);
#699 = ORIENTED_EDGE('',*,*,#205,.F.);
#700 = CYLINDRICAL_SURFACE('',#701,2.25);
#701 = AXIS2_PLACEMENT_3D('',#702,#703,#704);
#702 = CARTESIAN_POINT('',(306.43765069017,14.278023003059,
    3.257914960815));
#703 = DIRECTION('',(0.,-3.858526014482E-02,-0.999255311569));
#704 = DIRECTION('',(1.,0.,0.));
#705 = ADVANCED_FACE('',(#706),#725,.F.);
#706 = FACE_BOUND('',#707,.F.);
#707 = EDGE_LOOP('',(#708,#716,#723,#724));
#708 = ORIENTED_EDGE('',*,*,#709,.T.);
#709 = EDGE_CURVE('',#217,#710,#712,.T.);
#710 = VERTEX_POINT('',#711);
#711 = CARTESIAN_POINT('',(308.68765069017,94.847820517231,
    2.148282033111));
#712 = LINE('',#713,#714);
#713 = CARTESIAN_POINT('',(308.68765069017,94.770649996941,
    0.149771409973));
#714 = VECTOR('',#715,1.);
#715 = DIRECTION('',(0.,3.858526014482E-02,0.999255311569));
#716 = ORIENTED_EDGE('',*,*,#717,.T.);
#717 = EDGE_CURVE('',#710,#710,#718,.T.);
#718 = CIRCLE('',#719,2.25);
#719 = AXIS2_PLACEMENT_3D('',#720,#721,#722);
#720 = CARTESIAN_POINT('',(306.43765069017,94.847820517231,
    2.148282033111));
#721 = DIRECTION('',(0.,-3.858526014482E-02,-0.999255311569));
#722 = DIRECTION('',(1.,0.,0.));
#723 = ORIENTED_EDGE('',*,*,#709,.F.);
#724 = ORIENTED_EDGE('',*,*,#216,.F.);
#725 = CYLINDRICAL_SURFACE('',#726,2.25);
#726 = AXIS2_PLACEMENT_3D('',#727,#728,#729);
#727 = CARTESIAN_POINT('',(306.43765069017,94.770649996941,
    0.149771409973));
#728 = DIRECTION('',(0.,-3.858526014482E-02,-0.999255311569));
#729 = DIRECTION('',(1.,0.,0.));
#730 = ADVANCED_FACE('',(#731),#750,.F.);
#731 = FACE_BOUND('',#732,.F.);
#732 = EDGE_LOOP('',(#733,#741,#748,#749));
#733 = ORIENTED_EDGE('',*,*,#734,.T.);
#734 = EDGE_CURVE('',#228,#735,#737,.T.);
#735 = VERTEX_POINT('',#736);
#736 = CARTESIAN_POINT('',(175.58248099788,-2.08618814347,5.891293351389
    ));
#737 = LINE('',#738,#739);
#738 = CARTESIAN_POINT('',(175.58248099788,-2.163358663759,3.89278272825
    ));
#739 = VECTOR('',#740,1.);
#740 = DIRECTION('',(0.,3.858526014482E-02,0.999255311569));
#741 = ORIENTED_EDGE('',*,*,#742,.T.);
#742 = EDGE_CURVE('',#735,#735,#743,.T.);
#743 = CIRCLE('',#744,2.25);
#744 = AXIS2_PLACEMENT_3D('',#745,#746,#747);
#745 = CARTESIAN_POINT('',(173.33248099788,-2.08618814347,5.891293351389
    ));
#746 = DIRECTION('',(0.,-3.858526014482E-02,-0.999255311569));
#747 = DIRECTION('',(1.,0.,0.));
#748 = ORIENTED_EDGE('',*,*,#734,.F.);
#749 = ORIENTED_EDGE('',*,*,#227,.F.);
#750 = CYLINDRICAL_SURFACE('',#751,2.25);
#751 = AXIS2_PLACEMENT_3D('',#752,#753,#754);
#752 = CARTESIAN_POINT('',(173.33248099788,-2.163358663759,3.89278272825
    ));
#753 = DIRECTION('',(0.,-3.858526014482E-02,-0.999255311569));
#754 = DIRECTION('',(1.,0.,0.));
#755 = ADVANCED_FACE('',(#756),#775,.F.);
#756 = FACE_BOUND('',#757,.F.);
#757 = EDGE_LOOP('',(#758,#766,#773,#774));
#758 = ORIENTED_EDGE('',*,*,#759,.T.);
#759 = EDGE_CURVE('',#239,#760,#762,.T.);
#760 = VERTEX_POINT('',#761);
#761 = CARTESIAN_POINT('',(170.20750869629,94.847821903704,
    2.148281979574));
#762 = LINE('',#763,#764);
#763 = CARTESIAN_POINT('',(170.20750869629,94.770651383414,
    0.149771356435));
#764 = VECTOR('',#765,1.);
#765 = DIRECTION('',(0.,3.858526014482E-02,0.999255311569));
#766 = ORIENTED_EDGE('',*,*,#767,.T.);
#767 = EDGE_CURVE('',#760,#760,#768,.T.);
#768 = CIRCLE('',#769,2.25);
#769 = AXIS2_PLACEMENT_3D('',#770,#771,#772);
#770 = CARTESIAN_POINT('',(167.95750869629,94.847821903704,
    2.148281979574));
#771 = DIRECTION('',(0.,-3.858526014482E-02,-0.999255311569));
#772 = DIRECTION('',(1.,0.,0.));
#773 = ORIENTED_EDGE('',*,*,#759,.F.);
#774 = ORIENTED_EDGE('',*,*,#238,.F.);
#775 = CYLINDRICAL_SURFACE('',#776,2.25);
#776 = AXIS2_PLACEMENT_3D('',#777,#778,#779);
#777 = CARTESIAN_POINT('',(167.95750869629,94.770651383414,
    0.149771356435));
#778 = DIRECTION('',(0.,-3.858526014482E-02,-0.999255311569));
#779 = DIRECTION('',(1.,0.,0.));
#780 = ADVANCED_FACE('',(#781),#799,.F.);
#781 = FACE_BOUND('',#782,.F.);
#782 = EDGE_LOOP('',(#783,#784,#792,#798));
#783 = ORIENTED_EDGE('',*,*,#265,.T.);
#784 = ORIENTED_EDGE('',*,*,#785,.T.);
#785 = EDGE_CURVE('',#266,#786,#788,.T.);
#786 = VERTEX_POINT('',#787);
#787 = CARTESIAN_POINT('',(170.078828,56.829331960769,4.5));
#788 = LINE('',#789,#790);
#789 = CARTESIAN_POINT('',(170.078828,56.829331960769,6.));
#790 = VECTOR('',#791,1.);
#791 = DIRECTION('',(0.,0.,-1.));
#792 = ORIENTED_EDGE('',*,*,#793,.F.);
#793 = EDGE_CURVE('',#499,#786,#794,.T.);
#794 = LINE('',#795,#796);
#795 = CARTESIAN_POINT('',(164.078828,56.829331960769,4.5));
#796 = VECTOR('',#797,1.);
#797 = DIRECTION('',(1.,0.,0.));
#798 = ORIENTED_EDGE('',*,*,#498,.F.);
#799 = PLANE('',#800);
#800 = AXIS2_PLACEMENT_3D('',#801,#802,#803);
#801 = CARTESIAN_POINT('',(164.078828,56.829331960769,6.));
#802 = DIRECTION('',(0.,1.,0.));
#803 = DIRECTION('',(0.,0.,-1.));
#804 = ADVANCED_FACE('',(#805),#848,.T.);
#805 = FACE_BOUND('',#806,.T.);
#806 = EDGE_LOOP('',(#807,#808,#809,#818,#826,#834,#842));
#807 = ORIENTED_EDGE('',*,*,#273,.F.);
#808 = ORIENTED_EDGE('',*,*,#785,.T.);
#809 = ORIENTED_EDGE('',*,*,#810,.T.);
#810 = EDGE_CURVE('',#786,#811,#813,.T.);
#811 = VERTEX_POINT('',#812);
#812 = CARTESIAN_POINT('',(170.078828,56.329331960769,4.));
#813 = CIRCLE('',#814,0.5);
#814 = AXIS2_PLACEMENT_3D('',#815,#816,#817);
#815 = CARTESIAN_POINT('',(170.078828,56.329331960769,4.5));
#816 = DIRECTION('',(-1.,0.,0.));
#817 = DIRECTION('',(0.,-1.,0.));
#818 = ORIENTED_EDGE('',*,*,#819,.T.);
#819 = EDGE_CURVE('',#811,#820,#822,.T.);
#820 = VERTEX_POINT('',#821);
#821 = CARTESIAN_POINT('',(170.078828,62.64933,4.));
#822 = LINE('',#823,#824);
#823 = CARTESIAN_POINT('',(170.078828,31.839495,4.));
#824 = VECTOR('',#825,1.);
#825 = DIRECTION('',(0.,1.,0.));
#826 = ORIENTED_EDGE('',*,*,#827,.T.);
#827 = EDGE_CURVE('',#820,#828,#830,.T.);
#828 = VERTEX_POINT('',#829);
#829 = CARTESIAN_POINT('',(170.078828,62.64933,2.));
#830 = LINE('',#831,#832);
#831 = CARTESIAN_POINT('',(170.078828,62.64933,6.));
#832 = VECTOR('',#833,1.);
#833 = DIRECTION('',(-0.,-0.,-1.));
#834 = ORIENTED_EDGE('',*,*,#835,.F.);
#835 = EDGE_CURVE('',#836,#828,#838,.T.);
#836 = VERTEX_POINT('',#837);
#837 = CARTESIAN_POINT('',(170.078828,92.64933,2.));
#838 = LINE('',#839,#840);
#839 = CARTESIAN_POINT('',(170.078828,92.64933,2.));
#840 = VECTOR('',#841,1.);
#841 = DIRECTION('',(0.,-1.,0.));
#842 = ORIENTED_EDGE('',*,*,#843,.F.);
#843 = EDGE_CURVE('',#274,#836,#844,.T.);
#844 = LINE('',#845,#846);
#845 = CARTESIAN_POINT('',(170.078828,92.64933,6.));
#846 = VECTOR('',#847,1.);
#847 = DIRECTION('',(-0.,-0.,-1.));
#848 = PLANE('',#849);
#849 = AXIS2_PLACEMENT_3D('',#850,#851,#852);
#850 = CARTESIAN_POINT('',(170.078828,62.71980076476,4.47538826476));
#851 = DIRECTION('',(1.,0.,0.));
#852 = DIRECTION('',(0.,0.,1.));
#853 = ADVANCED_FACE('',(#854),#872,.T.);
#854 = FACE_BOUND('',#855,.T.);
#855 = EDGE_LOOP('',(#856,#857,#865,#871));
#856 = ORIENTED_EDGE('',*,*,#843,.T.);
#857 = ORIENTED_EDGE('',*,*,#858,.F.);
#858 = EDGE_CURVE('',#859,#836,#861,.T.);
#859 = VERTEX_POINT('',#860);
#860 = CARTESIAN_POINT('',(304.31633,92.64933,2.));
#861 = LINE('',#862,#863);
#862 = CARTESIAN_POINT('',(304.31633,92.64933,2.));
#863 = VECTOR('',#864,1.);
#864 = DIRECTION('',(-1.,0.,0.));
#865 = ORIENTED_EDGE('',*,*,#866,.F.);
#866 = EDGE_CURVE('',#282,#859,#867,.T.);
#867 = LINE('',#868,#869);
#868 = CARTESIAN_POINT('',(304.31633,92.64933,6.));
#869 = VECTOR('',#870,1.);
#870 = DIRECTION('',(-0.,-0.,-1.));
#871 = ORIENTED_EDGE('',*,*,#281,.F.);
#872 = PLANE('',#873);
#873 = AXIS2_PLACEMENT_3D('',#874,#875,#876);
#874 = CARTESIAN_POINT('',(237.197579,92.64933,4.));
#875 = DIRECTION('',(-0.,-1.,-0.));
#876 = DIRECTION('',(0.,0.,-1.));
#877 = ADVANCED_FACE('',(#878),#912,.T.);
#878 = FACE_BOUND('',#879,.T.);
#879 = EDGE_LOOP('',(#880,#881,#882,#890,#898,#906));
#880 = ORIENTED_EDGE('',*,*,#289,.F.);
#881 = ORIENTED_EDGE('',*,*,#866,.T.);
#882 = ORIENTED_EDGE('',*,*,#883,.F.);
#883 = EDGE_CURVE('',#884,#859,#886,.T.);
#884 = VERTEX_POINT('',#885);
#885 = CARTESIAN_POINT('',(304.31633,62.64933,2.));
#886 = LINE('',#887,#888);
#887 = CARTESIAN_POINT('',(304.31633,62.64933,2.));
#888 = VECTOR('',#889,1.);
#889 = DIRECTION('',(0.,1.,0.));
#890 = ORIENTED_EDGE('',*,*,#891,.F.);
#891 = EDGE_CURVE('',#892,#884,#894,.T.);
#892 = VERTEX_POINT('',#893);
#893 = CARTESIAN_POINT('',(304.31633,62.64933,4.));
#894 = LINE('',#895,#896);
#895 = CARTESIAN_POINT('',(304.31633,62.64933,6.));
#896 = VECTOR('',#897,1.);
#897 = DIRECTION('',(-0.,-0.,-1.));
#898 = ORIENTED_EDGE('',*,*,#899,.T.);
#899 = EDGE_CURVE('',#892,#900,#902,.T.);
#900 = VERTEX_POINT('',#901);
#901 = CARTESIAN_POINT('',(304.31633,16.399343,4.));
#902 = LINE('',#903,#904);
#903 = CARTESIAN_POINT('',(304.31633,92.64933,4.));
#904 = VECTOR('',#905,1.);
#905 = DIRECTION('',(0.,-1.,0.));
#906 = ORIENTED_EDGE('',*,*,#907,.F.);
#907 = EDGE_CURVE('',#290,#900,#908,.T.);
#908 = LINE('',#909,#910);
#909 = CARTESIAN_POINT('',(304.31633,16.399343,6.));
#910 = VECTOR('',#911,1.);
#911 = DIRECTION('',(-0.,-0.,-1.));
#912 = PLANE('',#913);
#913 = AXIS2_PLACEMENT_3D('',#914,#915,#916);
#914 = CARTESIAN_POINT('',(304.31633,55.100660418906,4.576323918906));
#915 = DIRECTION('',(-1.,-0.,-0.));
#916 = DIRECTION('',(0.,0.,-1.));
#917 = ADVANCED_FACE('',(#918),#936,.T.);
#918 = FACE_BOUND('',#919,.T.);
#919 = EDGE_LOOP('',(#920,#921,#929,#935));
#920 = ORIENTED_EDGE('',*,*,#907,.T.);
#921 = ORIENTED_EDGE('',*,*,#922,.T.);
#922 = EDGE_CURVE('',#900,#923,#925,.T.);
#923 = VERTEX_POINT('',#924);
#924 = CARTESIAN_POINT('',(247.116342,16.399343,4.));
#925 = LINE('',#926,#927);
#926 = CARTESIAN_POINT('',(304.31633,16.399343,4.));
#927 = VECTOR('',#928,1.);
#928 = DIRECTION('',(-1.,0.,0.));
#929 = ORIENTED_EDGE('',*,*,#930,.F.);
#930 = EDGE_CURVE('',#298,#923,#931,.T.);
#931 = LINE('',#932,#933);
#932 = CARTESIAN_POINT('',(247.116342,16.399343,6.));
#933 = VECTOR('',#934,1.);
#934 = DIRECTION('',(-0.,-0.,-1.));
#935 = ORIENTED_EDGE('',*,*,#297,.F.);
#936 = PLANE('',#937);
#937 = AXIS2_PLACEMENT_3D('',#938,#939,#940);
#938 = CARTESIAN_POINT('',(304.31633,16.399343,6.));
#939 = DIRECTION('',(0.,1.,0.));
#940 = DIRECTION('',(-1.,0.,0.));
#941 = ADVANCED_FACE('',(#942),#960,.T.);
#942 = FACE_BOUND('',#943,.T.);
#943 = EDGE_LOOP('',(#944,#945,#953,#959));
#944 = ORIENTED_EDGE('',*,*,#930,.T.);
#945 = ORIENTED_EDGE('',*,*,#946,.T.);
#946 = EDGE_CURVE('',#923,#947,#949,.T.);
#947 = VERTEX_POINT('',#948);
#948 = CARTESIAN_POINT('',(230.49758,11.636843,4.));
#949 = LINE('',#950,#951);
#950 = CARTESIAN_POINT('',(247.116342,16.399343,4.));
#951 = VECTOR('',#952,1.);
#952 = DIRECTION('',(-0.961305415201,-0.275484842968,0.));
#953 = ORIENTED_EDGE('',*,*,#954,.F.);
#954 = EDGE_CURVE('',#306,#947,#955,.T.);
#955 = LINE('',#956,#957);
#956 = CARTESIAN_POINT('',(230.49758,11.636843,6.));
#957 = VECTOR('',#958,1.);
#958 = DIRECTION('',(-0.,-0.,-1.));
#959 = ORIENTED_EDGE('',*,*,#305,.F.);
#960 = PLANE('',#961);
#961 = AXIS2_PLACEMENT_3D('',#962,#963,#964);
#962 = CARTESIAN_POINT('',(247.116342,16.399343,6.));
#963 = DIRECTION('',(-0.275484842968,0.961305415201,0.));
#964 = DIRECTION('',(-0.961305415201,-0.275484842968,0.));
#965 = ADVANCED_FACE('',(#966),#984,.T.);
#966 = FACE_BOUND('',#967,.T.);
#967 = EDGE_LOOP('',(#968,#969,#977,#983));
#968 = ORIENTED_EDGE('',*,*,#954,.T.);
#969 = ORIENTED_EDGE('',*,*,#970,.T.);
#970 = EDGE_CURVE('',#947,#971,#973,.T.);
#971 = VERTEX_POINT('',#972);
#972 = CARTESIAN_POINT('',(211.424999,11.636843,4.));
#973 = LINE('',#974,#975);
#974 = CARTESIAN_POINT('',(230.49758,11.636843,4.));
#975 = VECTOR('',#976,1.);
#976 = DIRECTION('',(-1.,0.,0.));
#977 = ORIENTED_EDGE('',*,*,#978,.F.);
#978 = EDGE_CURVE('',#314,#971,#979,.T.);
#979 = LINE('',#980,#981);
#980 = CARTESIAN_POINT('',(211.424999,11.636843,6.));
#981 = VECTOR('',#982,1.);
#982 = DIRECTION('',(-0.,-0.,-1.));
#983 = ORIENTED_EDGE('',*,*,#313,.F.);
#984 = PLANE('',#985);
#985 = AXIS2_PLACEMENT_3D('',#986,#987,#988);
#986 = CARTESIAN_POINT('',(230.49758,11.636843,6.));
#987 = DIRECTION('',(0.,1.,0.));
#988 = DIRECTION('',(-1.,0.,0.));
#989 = ADVANCED_FACE('',(#990),#1008,.T.);
#990 = FACE_BOUND('',#991,.T.);
#991 = EDGE_LOOP('',(#992,#993,#1001,#1007));
#992 = ORIENTED_EDGE('',*,*,#978,.T.);
#993 = ORIENTED_EDGE('',*,*,#994,.T.);
#994 = EDGE_CURVE('',#971,#995,#997,.T.);
#995 = VERTEX_POINT('',#996);
#996 = CARTESIAN_POINT('',(192.311042,7.912771,4.));
#997 = LINE('',#998,#999);
#998 = CARTESIAN_POINT('',(211.424999,11.636843,4.));
#999 = VECTOR('',#1000,1.);
#1000 = DIRECTION('',(-0.981543455629,-0.191239234236,0.));
#1001 = ORIENTED_EDGE('',*,*,#1002,.F.);
#1002 = EDGE_CURVE('',#322,#995,#1003,.T.);
#1003 = LINE('',#1004,#1005);
#1004 = CARTESIAN_POINT('',(192.311042,7.912771,6.));
#1005 = VECTOR('',#1006,1.);
#1006 = DIRECTION('',(-0.,-0.,-1.));
#1007 = ORIENTED_EDGE('',*,*,#321,.F.);
#1008 = PLANE('',#1009);
#1009 = AXIS2_PLACEMENT_3D('',#1010,#1011,#1012);
#1010 = CARTESIAN_POINT('',(211.424999,11.636843,6.));
#1011 = DIRECTION('',(-0.191239234236,0.981543455629,0.));
#1012 = DIRECTION('',(-0.981543455629,-0.191239234236,0.));
#1013 = ADVANCED_FACE('',(#1014),#1032,.T.);
#1014 = FACE_BOUND('',#1015,.T.);
#1015 = EDGE_LOOP('',(#1016,#1017,#1025,#1031));
#1016 = ORIENTED_EDGE('',*,*,#1002,.T.);
#1017 = ORIENTED_EDGE('',*,*,#1018,.T.);
#1018 = EDGE_CURVE('',#995,#1019,#1021,.T.);
#1019 = VERTEX_POINT('',#1020);
#1020 = CARTESIAN_POINT('',(174.49024124493,0.604237985023,4.));
#1021 = LINE('',#1022,#1023);
#1022 = CARTESIAN_POINT('',(192.311042,7.912771,4.));
#1023 = VECTOR('',#1024,1.);
#1024 = DIRECTION('',(-0.925215369207,-0.379442381111,0.));
#1025 = ORIENTED_EDGE('',*,*,#1026,.F.);
#1026 = EDGE_CURVE('',#330,#1019,#1027,.T.);
#1027 = LINE('',#1028,#1029);
#1028 = CARTESIAN_POINT('',(174.49024124493,0.604237985023,6.));
#1029 = VECTOR('',#1030,1.);
#1030 = DIRECTION('',(-0.,-0.,-1.));
#1031 = ORIENTED_EDGE('',*,*,#329,.F.);
#1032 = PLANE('',#1033);
#1033 = AXIS2_PLACEMENT_3D('',#1034,#1035,#1036);
#1034 = CARTESIAN_POINT('',(192.311042,7.912771,6.));
#1035 = DIRECTION('',(-0.379442381111,0.925215369207,0.));
#1036 = DIRECTION('',(-0.925215369207,-0.379442381111,0.));
#1037 = ADVANCED_FACE('',(#1038),#1056,.F.);
#1038 = FACE_BOUND('',#1039,.F.);
#1039 = EDGE_LOOP('',(#1040,#1048,#1054,#1055));
#1040 = ORIENTED_EDGE('',*,*,#1041,.T.);
#1041 = EDGE_CURVE('',#524,#1042,#1044,.T.);
#1042 = VERTEX_POINT('',#1043);
#1043 = CARTESIAN_POINT('',(170.078828,46.829331960769,4.5));
#1044 = LINE('',#1045,#1046);
#1045 = CARTESIAN_POINT('',(164.078828,46.829331960769,4.5));
#1046 = VECTOR('',#1047,1.);
#1047 = DIRECTION('',(1.,0.,0.));
#1048 = ORIENTED_EDGE('',*,*,#1049,.T.);
#1049 = EDGE_CURVE('',#1042,#354,#1050,.T.);
#1050 = LINE('',#1051,#1052);
#1051 = CARTESIAN_POINT('',(170.078828,46.829331960769,4.5));
#1052 = VECTOR('',#1053,1.);
#1053 = DIRECTION('',(0.,0.,1.));
#1054 = ORIENTED_EDGE('',*,*,#361,.F.);
#1055 = ORIENTED_EDGE('',*,*,#532,.F.);
#1056 = PLANE('',#1057);
#1057 = AXIS2_PLACEMENT_3D('',#1058,#1059,#1060);
#1058 = CARTESIAN_POINT('',(164.078828,46.829331960769,4.5));
#1059 = DIRECTION('',(0.,-1.,0.));
#1060 = DIRECTION('',(0.,0.,1.));
#1061 = ADVANCED_FACE('',(#1062),#1080,.F.);
#1062 = FACE_BOUND('',#1063,.F.);
#1063 = EDGE_LOOP('',(#1064,#1072,#1078,#1079));
#1064 = ORIENTED_EDGE('',*,*,#1065,.T.);
#1065 = EDGE_CURVE('',#338,#1066,#1068,.T.);
#1066 = VERTEX_POINT('',#1067);
#1067 = CARTESIAN_POINT('',(167.1777573647,18.33447281417,4.));
#1068 = LINE('',#1069,#1070);
#1069 = CARTESIAN_POINT('',(167.1777573647,18.33447281417,6.));
#1070 = VECTOR('',#1071,1.);
#1071 = DIRECTION('',(-0.,-0.,-1.));
#1072 = ORIENTED_EDGE('',*,*,#1073,.T.);
#1073 = EDGE_CURVE('',#1066,#1019,#1074,.T.);
#1074 = LINE('',#1075,#1076);
#1075 = CARTESIAN_POINT('',(167.1777573647,18.33447281417,4.));
#1076 = VECTOR('',#1077,1.);
#1077 = DIRECTION('',(0.381275759458,-0.924461354114,0.));
#1078 = ORIENTED_EDGE('',*,*,#1026,.F.);
#1079 = ORIENTED_EDGE('',*,*,#337,.F.);
#1080 = PLANE('',#1081);
#1081 = AXIS2_PLACEMENT_3D('',#1082,#1083,#1084);
#1082 = CARTESIAN_POINT('',(167.1777573647,18.33447281417,6.));
#1083 = DIRECTION('',(-0.924461354114,-0.381275759458,0.));
#1084 = DIRECTION('',(0.381275759458,-0.924461354114,0.));
#1085 = ADVANCED_FACE('',(#1086),#1113,.T.);
#1086 = FACE_BOUND('',#1087,.T.);
#1087 = EDGE_LOOP('',(#1088,#1089,#1097,#1105,#1112));
#1088 = ORIENTED_EDGE('',*,*,#353,.F.);
#1089 = ORIENTED_EDGE('',*,*,#1090,.T.);
#1090 = EDGE_CURVE('',#346,#1091,#1093,.T.);
#1091 = VERTEX_POINT('',#1092);
#1092 = CARTESIAN_POINT('',(170.078828,31.839495,4.));
#1093 = LINE('',#1094,#1095);
#1094 = CARTESIAN_POINT('',(170.078828,31.839495,6.));
#1095 = VECTOR('',#1096,1.);
#1096 = DIRECTION('',(-0.,-0.,-1.));
#1097 = ORIENTED_EDGE('',*,*,#1098,.T.);
#1098 = EDGE_CURVE('',#1091,#1099,#1101,.T.);
#1099 = VERTEX_POINT('',#1100);
#1100 = CARTESIAN_POINT('',(170.078828,47.329331960769,4.));
#1101 = LINE('',#1102,#1103);
#1102 = CARTESIAN_POINT('',(170.078828,31.839495,4.));
#1103 = VECTOR('',#1104,1.);
#1104 = DIRECTION('',(0.,1.,0.));
#1105 = ORIENTED_EDGE('',*,*,#1106,.T.);
#1106 = EDGE_CURVE('',#1099,#1042,#1107,.T.);
#1107 = CIRCLE('',#1108,0.5);
#1108 = AXIS2_PLACEMENT_3D('',#1109,#1110,#1111);
#1109 = CARTESIAN_POINT('',(170.078828,47.329331960769,4.5));
#1110 = DIRECTION('',(-1.,0.,0.));
#1111 = DIRECTION('',(0.,-1.,0.));
#1112 = ORIENTED_EDGE('',*,*,#1049,.T.);
#1113 = PLANE('',#1114);
#1114 = AXIS2_PLACEMENT_3D('',#1115,#1116,#1117);
#1115 = CARTESIAN_POINT('',(170.078828,62.71980076476,4.47538826476));
#1116 = DIRECTION('',(1.,0.,0.));
#1117 = DIRECTION('',(0.,0.,1.));
#1118 = ADVANCED_FACE('',(#1119),#1130,.T.);
#1119 = FACE_BOUND('',#1120,.T.);
#1120 = EDGE_LOOP('',(#1121,#1122,#1128,#1129));
#1121 = ORIENTED_EDGE('',*,*,#1065,.T.);
#1122 = ORIENTED_EDGE('',*,*,#1123,.T.);
#1123 = EDGE_CURVE('',#1066,#1091,#1124,.T.);
#1124 = LINE('',#1125,#1126);
#1125 = CARTESIAN_POINT('',(167.1777573647,18.33447281417,4.));
#1126 = VECTOR('',#1127,1.);
#1127 = DIRECTION('',(0.21002308307,0.977696427618,0.));
#1128 = ORIENTED_EDGE('',*,*,#1090,.F.);
#1129 = ORIENTED_EDGE('',*,*,#345,.F.);
#1130 = PLANE('',#1131);
#1131 = AXIS2_PLACEMENT_3D('',#1132,#1133,#1134);
#1132 = CARTESIAN_POINT('',(167.1777573647,18.33447281417,6.));
#1133 = DIRECTION('',(0.977696427618,-0.21002308307,0.));
#1134 = DIRECTION('',(0.21002308307,0.977696427618,0.));
#1135 = ADVANCED_FACE('',(#1136),#1155,.F.);
#1136 = FACE_BOUND('',#1137,.T.);
#1137 = EDGE_LOOP('',(#1138,#1147,#1153,#1154));
#1138 = ORIENTED_EDGE('',*,*,#1139,.F.);
#1139 = EDGE_CURVE('',#1140,#1140,#1142,.T.);
#1140 = VERTEX_POINT('',#1141);
#1141 = CARTESIAN_POINT('',(174.53248099788,-2.163358663759,
    5.89427321506));
#1142 = ELLIPSE('',#1143,1.200894292086,1.2);
#1143 = AXIS2_PLACEMENT_3D('',#1144,#1145,#1146);
#1144 = CARTESIAN_POINT('',(173.33248099788,-2.163358663759,
    5.89427321506));
#1145 = DIRECTION('',(0.,3.858526014482E-02,0.999255311569));
#1146 = DIRECTION('',(0.,0.999255311569,-3.858526014482E-02));
#1147 = ORIENTED_EDGE('',*,*,#1148,.T.);
#1148 = EDGE_CURVE('',#1140,#446,#1149,.T.);
#1149 = LINE('',#1150,#1151);
#1150 = CARTESIAN_POINT('',(174.53248099788,-2.163358663759,0.));
#1151 = VECTOR('',#1152,1.);
#1152 = DIRECTION('',(0.,0.,1.));
#1153 = ORIENTED_EDGE('',*,*,#445,.T.);
#1154 = ORIENTED_EDGE('',*,*,#1148,.F.);
#1155 = CYLINDRICAL_SURFACE('',#1156,1.2);
#1156 = AXIS2_PLACEMENT_3D('',#1157,#1158,#1159);
#1157 = CARTESIAN_POINT('',(173.33248099788,-2.163358663759,0.));
#1158 = DIRECTION('',(-0.,-0.,-1.));
#1159 = DIRECTION('',(1.,0.,0.));
#1160 = ADVANCED_FACE('',(#1161),#1180,.F.);
#1161 = FACE_BOUND('',#1162,.T.);
#1162 = EDGE_LOOP('',(#1163,#1172,#1178,#1179));
#1163 = ORIENTED_EDGE('',*,*,#1164,.F.);
#1164 = EDGE_CURVE('',#1165,#1165,#1167,.T.);
#1165 = VERTEX_POINT('',#1166);
#1166 = CARTESIAN_POINT('',(307.63765069017,14.278023003059,
    5.259405447624));
#1167 = ELLIPSE('',#1168,1.200894292086,1.2);
#1168 = AXIS2_PLACEMENT_3D('',#1169,#1170,#1171);
#1169 = CARTESIAN_POINT('',(306.43765069017,14.278023003059,
    5.259405447624));
#1170 = DIRECTION('',(0.,3.858526014482E-02,0.999255311569));
#1171 = DIRECTION('',(0.,0.999255311569,-3.858526014482E-02));
#1172 = ORIENTED_EDGE('',*,*,#1173,.T.);
#1173 = EDGE_CURVE('',#1165,#457,#1174,.T.);
#1174 = LINE('',#1175,#1176);
#1175 = CARTESIAN_POINT('',(307.63765069017,14.278023003059,0.));
#1176 = VECTOR('',#1177,1.);
#1177 = DIRECTION('',(0.,0.,1.));
#1178 = ORIENTED_EDGE('',*,*,#456,.T.);
#1179 = ORIENTED_EDGE('',*,*,#1173,.F.);
#1180 = CYLINDRICAL_SURFACE('',#1181,1.2);
#1181 = AXIS2_PLACEMENT_3D('',#1182,#1183,#1184);
#1182 = CARTESIAN_POINT('',(306.43765069017,14.278023003059,0.));
#1183 = DIRECTION('',(-0.,-0.,-1.));
#1184 = DIRECTION('',(1.,0.,0.));
#1185 = ADVANCED_FACE('',(#1186),#1205,.F.);
#1186 = FACE_BOUND('',#1187,.T.);
#1187 = EDGE_LOOP('',(#1188,#1197,#1203,#1204));
#1188 = ORIENTED_EDGE('',*,*,#1189,.F.);
#1189 = EDGE_CURVE('',#1190,#1190,#1192,.T.);
#1190 = VERTEX_POINT('',#1191);
#1191 = CARTESIAN_POINT('',(169.15750869629,94.770651383414,
    2.151261843245));
#1192 = ELLIPSE('',#1193,1.200894292086,1.2);
#1193 = AXIS2_PLACEMENT_3D('',#1194,#1195,#1196);
#1194 = CARTESIAN_POINT('',(167.95750869629,94.770651383414,
    2.151261843245));
#1195 = DIRECTION('',(0.,3.858526014482E-02,0.999255311569));
#1196 = DIRECTION('',(0.,0.999255311569,-3.858526014482E-02));
#1197 = ORIENTED_EDGE('',*,*,#1198,.T.);
#1198 = EDGE_CURVE('',#1190,#468,#1199,.T.);
#1199 = LINE('',#1200,#1201);
#1200 = CARTESIAN_POINT('',(169.15750869629,94.770651383414,0.));
#1201 = VECTOR('',#1202,1.);
#1202 = DIRECTION('',(0.,0.,1.));
#1203 = ORIENTED_EDGE('',*,*,#467,.T.);
#1204 = ORIENTED_EDGE('',*,*,#1198,.F.);
#1205 = CYLINDRICAL_SURFACE('',#1206,1.2);
#1206 = AXIS2_PLACEMENT_3D('',#1207,#1208,#1209);
#1207 = CARTESIAN_POINT('',(167.95750869629,94.770651383414,0.));
#1208 = DIRECTION('',(-0.,-0.,-1.));
#1209 = DIRECTION('',(1.,0.,0.));
#1210 = ADVANCED_FACE('',(#1211),#1230,.F.);
#1211 = FACE_BOUND('',#1212,.T.);
#1212 = EDGE_LOOP('',(#1213,#1222,#1228,#1229));
#1213 = ORIENTED_EDGE('',*,*,#1214,.F.);
#1214 = EDGE_CURVE('',#1215,#1215,#1217,.T.);
#1215 = VERTEX_POINT('',#1216);
#1216 = CARTESIAN_POINT('',(307.63765069017,94.770649996941,
    2.151261896782));
#1217 = ELLIPSE('',#1218,1.200894292086,1.2);
#1218 = AXIS2_PLACEMENT_3D('',#1219,#1220,#1221);
#1219 = CARTESIAN_POINT('',(306.43765069017,94.770649996941,
    2.151261896782));
#1220 = DIRECTION('',(0.,3.858526014482E-02,0.999255311569));
#1221 = DIRECTION('',(0.,0.999255311569,-3.858526014482E-02));
#1222 = ORIENTED_EDGE('',*,*,#1223,.T.);
#1223 = EDGE_CURVE('',#1215,#479,#1224,.T.);
#1224 = LINE('',#1225,#1226);
#1225 = CARTESIAN_POINT('',(307.63765069017,94.770649996941,0.));
#1226 = VECTOR('',#1227,1.);
#1227 = DIRECTION('',(0.,0.,1.));
#1228 = ORIENTED_EDGE('',*,*,#478,.T.);
#1229 = ORIENTED_EDGE('',*,*,#1223,.F.);
#1230 = CYLINDRICAL_SURFACE('',#1231,1.2);
#1231 = AXIS2_PLACEMENT_3D('',#1232,#1233,#1234);
#1232 = CARTESIAN_POINT('',(306.43765069017,94.770649996941,0.));
#1233 = DIRECTION('',(-0.,-0.,-1.));
#1234 = DIRECTION('',(1.,0.,0.));
#1235 = ADVANCED_FACE('',(#1236),#1247,.F.);
#1236 = FACE_BOUND('',#1237,.F.);
#1237 = EDGE_LOOP('',(#1238,#1244,#1245,#1246));
#1238 = ORIENTED_EDGE('',*,*,#1239,.T.);
#1239 = EDGE_CURVE('',#516,#1099,#1240,.T.);
#1240 = LINE('',#1241,#1242);
#1241 = CARTESIAN_POINT('',(164.078828,47.329331960769,4.));
#1242 = VECTOR('',#1243,1.);
#1243 = DIRECTION('',(1.,0.,0.));
#1244 = ORIENTED_EDGE('',*,*,#1106,.T.);
#1245 = ORIENTED_EDGE('',*,*,#1041,.F.);
#1246 = ORIENTED_EDGE('',*,*,#523,.F.);
#1247 = CYLINDRICAL_SURFACE('',#1248,0.5);
#1248 = AXIS2_PLACEMENT_3D('',#1249,#1250,#1251);
#1249 = CARTESIAN_POINT('',(164.078828,47.329331960769,4.5));
#1250 = DIRECTION('',(-1.,0.,0.));
#1251 = DIRECTION('',(0.,-1.,0.));
#1252 = ADVANCED_FACE('',(#1253),#1279,.T.);
#1253 = FACE_BOUND('',#1254,.T.);
#1254 = EDGE_LOOP('',(#1255,#1261,#1262,#1263,#1264,#1265,#1266,#1267,
    #1268,#1269,#1270,#1271,#1272,#1278));
#1255 = ORIENTED_EDGE('',*,*,#1256,.F.);
#1256 = EDGE_CURVE('',#507,#811,#1257,.T.);
#1257 = LINE('',#1258,#1259);
#1258 = CARTESIAN_POINT('',(164.078828,56.329331960769,4.));
#1259 = VECTOR('',#1260,1.);
#1260 = DIRECTION('',(1.,0.,0.));
#1261 = ORIENTED_EDGE('',*,*,#515,.T.);
#1262 = ORIENTED_EDGE('',*,*,#1239,.T.);
#1263 = ORIENTED_EDGE('',*,*,#1098,.F.);
#1264 = ORIENTED_EDGE('',*,*,#1123,.F.);
#1265 = ORIENTED_EDGE('',*,*,#1073,.T.);
#1266 = ORIENTED_EDGE('',*,*,#1018,.F.);
#1267 = ORIENTED_EDGE('',*,*,#994,.F.);
#1268 = ORIENTED_EDGE('',*,*,#970,.F.);
#1269 = ORIENTED_EDGE('',*,*,#946,.F.);
#1270 = ORIENTED_EDGE('',*,*,#922,.F.);
#1271 = ORIENTED_EDGE('',*,*,#899,.F.);
#1272 = ORIENTED_EDGE('',*,*,#1273,.F.);
#1273 = EDGE_CURVE('',#820,#892,#1274,.T.);
#1274 = LINE('',#1275,#1276);
#1275 = CARTESIAN_POINT('',(202.50855696383,62.64933,4.));
#1276 = VECTOR('',#1277,1.);
#1277 = DIRECTION('',(1.,0.,0.));
#1278 = ORIENTED_EDGE('',*,*,#819,.F.);
#1279 = PLANE('',#1280);
#1280 = AXIS2_PLACEMENT_3D('',#1281,#1282,#1283);
#1281 = CARTESIAN_POINT('',(232.35487977404,37.361972189999,4.));
#1282 = DIRECTION('',(0.,0.,1.));
#1283 = DIRECTION('',(1.,0.,0.));
#1284 = ADVANCED_FACE('',(#1285),#1291,.F.);
#1285 = FACE_BOUND('',#1286,.F.);
#1286 = EDGE_LOOP('',(#1287,#1288,#1289,#1290));
#1287 = ORIENTED_EDGE('',*,*,#793,.T.);
#1288 = ORIENTED_EDGE('',*,*,#810,.T.);
#1289 = ORIENTED_EDGE('',*,*,#1256,.F.);
#1290 = ORIENTED_EDGE('',*,*,#506,.F.);
#1291 = CYLINDRICAL_SURFACE('',#1292,0.5);
#1292 = AXIS2_PLACEMENT_3D('',#1293,#1294,#1295);
#1293 = CARTESIAN_POINT('',(164.078828,56.329331960769,4.5));
#1294 = DIRECTION('',(-1.,0.,0.));
#1295 = DIRECTION('',(0.,-1.,0.));
#1296 = ADVANCED_FACE('',(#1297,#1300),#1303,.F.);
#1297 = FACE_BOUND('',#1298,.F.);
#1298 = EDGE_LOOP('',(#1299));
#1299 = ORIENTED_EDGE('',*,*,#692,.F.);
#1300 = FACE_BOUND('',#1301,.F.);
#1301 = EDGE_LOOP('',(#1302));
#1302 = ORIENTED_EDGE('',*,*,#1164,.F.);
#1303 = PLANE('',#1304);
#1304 = AXIS2_PLACEMENT_3D('',#1305,#1306,#1307);
#1305 = CARTESIAN_POINT('',(239.88506584402,6.134502689939,
    5.573859467671));
#1306 = DIRECTION('',(0.,3.858526014482E-02,0.999255311569));
#1307 = DIRECTION('',(0.,0.999255311569,-3.858526014482E-02));
#1308 = ADVANCED_FACE('',(#1309,#1312),#1315,.F.);
#1309 = FACE_BOUND('',#1310,.F.);
#1310 = EDGE_LOOP('',(#1311));
#1311 = ORIENTED_EDGE('',*,*,#717,.F.);
#1312 = FACE_BOUND('',#1313,.F.);
#1313 = EDGE_LOOP('',(#1314));
#1314 = ORIENTED_EDGE('',*,*,#1214,.F.);
#1315 = PLANE('',#1316);
#1316 = AXIS2_PLACEMENT_3D('',#1317,#1318,#1319);
#1317 = CARTESIAN_POINT('',(237.19757969323,94.847821210468,
    2.148282006343));
#1318 = DIRECTION('',(0.,3.858526014482E-02,0.999255311569));
#1319 = DIRECTION('',(0.,0.999255311569,-3.858526014482E-02));
#1320 = ADVANCED_FACE('',(#1321,#1324),#1327,.F.);
#1321 = FACE_BOUND('',#1322,.F.);
#1322 = EDGE_LOOP('',(#1323));
#1323 = ORIENTED_EDGE('',*,*,#742,.F.);
#1324 = FACE_BOUND('',#1325,.F.);
#1325 = EDGE_LOOP('',(#1326));
#1326 = ORIENTED_EDGE('',*,*,#1139,.F.);
#1327 = PLANE('',#1328);
#1328 = AXIS2_PLACEMENT_3D('',#1329,#1330,#1331);
#1329 = CARTESIAN_POINT('',(239.88506584402,6.134502689939,
    5.573859467671));
#1330 = DIRECTION('',(0.,3.858526014482E-02,0.999255311569));
#1331 = DIRECTION('',(0.,0.999255311569,-3.858526014482E-02));
#1332 = ADVANCED_FACE('',(#1333,#1336),#1339,.F.);
#1333 = FACE_BOUND('',#1334,.F.);
#1334 = EDGE_LOOP('',(#1335));
#1335 = ORIENTED_EDGE('',*,*,#767,.F.);
#1336 = FACE_BOUND('',#1337,.F.);
#1337 = EDGE_LOOP('',(#1338));
#1338 = ORIENTED_EDGE('',*,*,#1189,.F.);
#1339 = PLANE('',#1340);
#1340 = AXIS2_PLACEMENT_3D('',#1341,#1342,#1343);
#1341 = CARTESIAN_POINT('',(237.19757969323,94.847821210468,
    2.148282006343));
#1342 = DIRECTION('',(0.,3.858526014482E-02,0.999255311569));
#1343 = DIRECTION('',(0.,0.999255311569,-3.858526014482E-02));
#1344 = ADVANCED_FACE('',(#1345),#1356,.T.);
#1345 = FACE_BOUND('',#1346,.T.);
#1346 = EDGE_LOOP('',(#1347,#1348,#1354,#1355));
#1347 = ORIENTED_EDGE('',*,*,#835,.T.);
#1348 = ORIENTED_EDGE('',*,*,#1349,.T.);
#1349 = EDGE_CURVE('',#828,#884,#1350,.T.);
#1350 = LINE('',#1351,#1352);
#1351 = CARTESIAN_POINT('',(170.078828,62.64933,2.));
#1352 = VECTOR('',#1353,1.);
#1353 = DIRECTION('',(1.,0.,0.));
#1354 = ORIENTED_EDGE('',*,*,#883,.T.);
#1355 = ORIENTED_EDGE('',*,*,#858,.T.);
#1356 = PLANE('',#1357);
#1357 = AXIS2_PLACEMENT_3D('',#1358,#1359,#1360);
#1358 = CARTESIAN_POINT('',(237.197579,77.64933,2.));
#1359 = DIRECTION('',(0.,0.,1.));
#1360 = DIRECTION('',(1.,0.,0.));
#1361 = ADVANCED_FACE('',(#1362),#1368,.F.);
#1362 = FACE_BOUND('',#1363,.F.);
#1363 = EDGE_LOOP('',(#1364,#1365,#1366,#1367));
#1364 = ORIENTED_EDGE('',*,*,#1273,.F.);
#1365 = ORIENTED_EDGE('',*,*,#827,.T.);
#1366 = ORIENTED_EDGE('',*,*,#1349,.T.);
#1367 = ORIENTED_EDGE('',*,*,#891,.F.);
#1368 = PLANE('',#1369);
#1369 = AXIS2_PLACEMENT_3D('',#1370,#1371,#1372);
#1370 = CARTESIAN_POINT('',(170.078828,62.64933,6.));
#1371 = DIRECTION('',(0.,-1.,0.));
#1372 = DIRECTION('',(1.,0.,0.));
#1373 = ( GEOMETRIC_REPRESENTATION_CONTEXT(3) 
GLOBAL_UNCERTAINTY_ASSIGNED_CONTEXT((#1377)) 
GLOBAL_UNIT_ASSIGNED_CONTEXT((#1374,#1375,#1376)) REPRESENTATION_CONTEXT
('Context #1','3D Context with UNIT and UNCERTAINTY') );
#1374 = ( LENGTH_UNIT() NAMED_UNIT(*) SI_UNIT(.MILLI.,.METRE.) );
#1375 = ( NAMED_UNIT(*) PLANE_ANGLE_UNIT() SI_UNIT($,.RADIAN.) );
#1376 = ( NAMED_UNIT(*) SI_UNIT($,.STERADIAN.) SOLID_ANGLE_UNIT() );
#1377 = UNCERTAINTY_MEASURE_WITH_UNIT(LENGTH_MEASURE(1.E-04),#1374,
  'distance_accuracy_value','confusion accuracy');
#1378 = PRODUCT_RELATED_PRODUCT_CATEGORY('part',$,(#7));
#1379 = MECHANICAL_DESIGN_GEOMETRIC_PRESENTATION_REPRESENTATION('',(
    #1380),#1373);
#1380 = STYLED_ITEM('color',(#1381),#15);
#1381 = PRESENTATION_STYLE_ASSIGNMENT((#1382,#1388));
#1382 = SURFACE_STYLE_USAGE(.BOTH.,#1383);
#1383 = SURFACE_SIDE_STYLE('',(#1384));
#1384 = SURFACE_STYLE_FILL_AREA(#1385);
#1385 = FILL_AREA_STYLE('',(#1386));
#1386 = FILL_AREA_STYLE_COLOUR('',#1387);
#1387 = COLOUR_RGB('',0.447058818107,0.474509808674,0.501960817233);
#1388 = CURVE_STYLE('',#1389,POSITIVE_LENGTH_MEASURE(0.1),#1390);
#1389 = DRAUGHTING_PRE_DEFINED_CURVE_FONT('continuous');
#1390 = COLOUR_RGB('',9.803921802644E-02,9.803921802644E-02,
  9.803921802644E-02);
ENDSEC;
END-ISO-10303-21;
